<svg xmlns="http://www.w3.org/2000/svg" xmlns:xlink="http://www.w3.org/1999/xlink" width="500" zoomAndPan="magnify" viewBox="0 0 375 374.999991" height="500" preserveAspectRatio="xMidYMid meet" version="1.0"><defs><filter x="0%" y="0%" width="100%" height="100%" id="958f915ab3"><feColorMatrix values="0 0 0 0 1 0 0 0 0 1 0 0 0 0 1 0 0 0 1 0" color-interpolation-filters="sRGB"/></filter><g/><clipPath id="dfa393d632"><path d="M 161 61.742188 L 213 61.742188 L 213 96 L 161 96 Z M 161 61.742188 " clip-rule="nonzero"/></clipPath><clipPath id="554a834c4b"><path d="M 161 61.742188 L 213 61.742188 L 213 96 L 161 96 Z M 161 61.742188 " clip-rule="nonzero"/></clipPath><clipPath id="89b74e2b0d"><path d="M 82.785156 181 L 103 181 L 103 192 L 82.785156 192 Z M 82.785156 181 " clip-rule="nonzero"/></clipPath><clipPath id="c502cc14d4"><path d="M 172.617188 242.328125 L 202 242.328125 L 202 261.992188 L 172.617188 261.992188 Z M 172.617188 242.328125 " clip-rule="nonzero"/></clipPath><clipPath id="9038e9c7b2"><path d="M 272.234375 181.234375 L 292.035156 181.234375 L 292.035156 191.292969 L 272.234375 191.292969 Z M 272.234375 181.234375 " clip-rule="nonzero"/></clipPath><clipPath id="f248eaca67"><path d="M 161 61.742188 L 213 61.742188 L 213 96 L 161 96 Z M 161 61.742188 " clip-rule="nonzero"/></clipPath><mask id="bc02863991"><g filter="url(#958f915ab3)"><rect x="-37.5" width="450" fill="#000000" y="-37.499999" height="449.999989" fill-opacity="0.25"/></g></mask><clipPath id="a492f53250"><path d="M 49 0.300781 L 50 0.300781 L 50 97.050781 L 49 97.050781 Z M 49 0.300781 " clip-rule="nonzero"/></clipPath><clipPath id="fe450275eb"><path d="M 1.042969 40 L 97.792969 40 L 97.792969 58 L 1.042969 58 Z M 1.042969 40 " clip-rule="nonzero"/></clipPath><clipPath id="e23ae0d311"><path d="M 1.042969 48 L 97.792969 48 L 97.792969 50 L 1.042969 50 Z M 1.042969 48 " clip-rule="nonzero"/></clipPath><clipPath id="797cce38a8"><path d="M 1.042969 40 L 97.792969 40 L 97.792969 58 L 1.042969 58 Z M 1.042969 40 " clip-rule="nonzero"/></clipPath><clipPath id="d754760202"><rect x="0" width="99" y="0" height="98"/></clipPath></defs><g clip-path="url(#dfa393d632)"><path fill="#dbbe67" d="M 200.25 94.222656 C 199.710938 94.222656 199.265625 93.789062 199.265625 93.238281 C 199.265625 92.699219 199.710938 92.253906 200.25 92.253906 C 200.800781 92.253906 201.234375 92.699219 201.234375 93.238281 C 201.234375 93.789062 200.800781 94.222656 200.25 94.222656 Z M 195.804688 94.222656 C 195.261719 94.222656 194.820312 93.789062 194.820312 93.238281 C 194.820312 92.699219 195.261719 92.253906 195.804688 92.253906 C 196.351562 92.253906 196.789062 92.699219 196.789062 93.238281 C 196.789062 93.789062 196.351562 94.222656 195.804688 94.222656 Z M 191.355469 94.222656 C 190.8125 94.222656 190.371094 93.789062 190.371094 93.238281 C 190.371094 92.699219 190.8125 92.253906 191.355469 92.253906 C 191.894531 92.253906 192.339844 92.699219 192.339844 93.238281 C 192.339844 93.789062 191.894531 94.222656 191.355469 94.222656 Z M 186.964844 94.210938 C 186.449219 94.175781 186.042969 93.769531 186.042969 93.238281 C 186.042969 92.714844 186.449219 92.300781 186.964844 92.265625 C 187.480469 92.300781 187.890625 92.714844 187.890625 93.238281 C 187.890625 93.769531 187.480469 94.175781 186.964844 94.210938 Z M 182.578125 94.222656 C 182.035156 94.222656 181.59375 93.789062 181.59375 93.238281 C 181.59375 92.699219 182.035156 92.253906 182.578125 92.253906 C 183.117188 92.253906 183.5625 92.699219 183.5625 93.238281 C 183.5625 93.789062 183.117188 94.222656 182.578125 94.222656 Z M 178.128906 94.222656 C 177.578125 94.222656 177.144531 93.789062 177.144531 93.238281 C 177.144531 92.699219 177.578125 92.253906 178.128906 92.253906 C 178.667969 92.253906 179.113281 92.699219 179.113281 93.238281 C 179.113281 93.789062 178.667969 94.222656 178.128906 94.222656 Z M 173.679688 94.222656 C 173.128906 94.222656 172.695312 93.789062 172.695312 93.238281 C 172.695312 92.699219 173.128906 92.253906 173.679688 92.253906 C 174.222656 92.253906 174.664062 92.699219 174.664062 93.238281 C 174.664062 93.789062 174.222656 94.222656 173.679688 94.222656 Z M 198.832031 79.863281 C 198.523438 80.828125 198.589844 81.871094 198.957031 82.816406 C 199.574219 84.398438 200.242188 87.316406 197.800781 88.984375 C 194.324219 91.375 190.949219 88.277344 190.3125 84.757812 C 189.65625 81.167969 190.523438 78.5625 193.351562 77.695312 C 196.167969 76.824219 186.910156 61.742188 186.910156 61.742188 C 186.910156 61.742188 177.761719 76.824219 180.578125 77.695312 C 183.40625 78.5625 184.273438 81.167969 183.621094 84.757812 C 182.980469 88.277344 179.605469 91.375 176.132812 88.984375 C 173.691406 87.316406 174.355469 84.398438 174.972656 82.816406 C 175.339844 81.871094 175.40625 80.828125 175.097656 79.863281 C 172.734375 72.503906 161.695312 72.597656 161.695312 72.597656 C 172.445312 87.46875 172.328125 95.929688 172.328125 95.929688 L 201.601562 95.929688 C 201.601562 95.929688 201.484375 87.46875 212.234375 72.597656 C 212.234375 72.597656 201.195312 72.503906 198.832031 79.863281 " fill-opacity="1" fill-rule="nonzero"/></g><path fill="#dbbe67" d="M 199.914062 98 L 174.015625 98 C 173.148438 98 172.441406 98.703125 172.441406 99.570312 C 172.441406 100.441406 173.148438 101.148438 174.015625 101.148438 L 199.914062 101.148438 C 200.785156 101.148438 201.488281 100.441406 201.488281 99.570312 C 201.488281 98.703125 200.785156 98 199.914062 98 " fill-opacity="1" fill-rule="nonzero"/><g clip-path="url(#554a834c4b)"><path fill="#dbbe67" d="M 200.25 94.222656 C 199.710938 94.222656 199.265625 93.789062 199.265625 93.238281 C 199.265625 92.699219 199.710938 92.253906 200.25 92.253906 C 200.800781 92.253906 201.234375 92.699219 201.234375 93.238281 C 201.234375 93.789062 200.800781 94.222656 200.25 94.222656 Z M 195.804688 94.222656 C 195.261719 94.222656 194.820312 93.789062 194.820312 93.238281 C 194.820312 92.699219 195.261719 92.253906 195.804688 92.253906 C 196.351562 92.253906 196.789062 92.699219 196.789062 93.238281 C 196.789062 93.789062 196.351562 94.222656 195.804688 94.222656 Z M 191.355469 94.222656 C 190.8125 94.222656 190.371094 93.789062 190.371094 93.238281 C 190.371094 92.699219 190.8125 92.253906 191.355469 92.253906 C 191.894531 92.253906 192.339844 92.699219 192.339844 93.238281 C 192.339844 93.789062 191.894531 94.222656 191.355469 94.222656 Z M 186.964844 94.210938 C 186.449219 94.175781 186.042969 93.769531 186.042969 93.238281 C 186.042969 92.714844 186.449219 92.300781 186.964844 92.265625 C 187.480469 92.300781 187.890625 92.714844 187.890625 93.238281 C 187.890625 93.769531 187.480469 94.175781 186.964844 94.210938 Z M 182.578125 94.222656 C 182.035156 94.222656 181.59375 93.789062 181.59375 93.238281 C 181.59375 92.699219 182.035156 92.253906 182.578125 92.253906 C 183.117188 92.253906 183.5625 92.699219 183.5625 93.238281 C 183.5625 93.789062 183.117188 94.222656 182.578125 94.222656 Z M 178.128906 94.222656 C 177.578125 94.222656 177.144531 93.789062 177.144531 93.238281 C 177.144531 92.699219 177.578125 92.253906 178.128906 92.253906 C 178.667969 92.253906 179.113281 92.699219 179.113281 93.238281 C 179.113281 93.789062 178.667969 94.222656 178.128906 94.222656 Z M 173.679688 94.222656 C 173.128906 94.222656 172.695312 93.789062 172.695312 93.238281 C 172.695312 92.699219 173.128906 92.253906 173.679688 92.253906 C 174.222656 92.253906 174.664062 92.699219 174.664062 93.238281 C 174.664062 93.789062 174.222656 94.222656 173.679688 94.222656 Z M 198.832031 79.863281 C 198.523438 80.828125 198.589844 81.871094 198.957031 82.816406 C 199.574219 84.398438 200.242188 87.316406 197.800781 88.984375 C 194.324219 91.375 190.949219 88.277344 190.3125 84.757812 C 189.65625 81.167969 190.523438 78.5625 193.351562 77.695312 C 196.167969 76.824219 186.910156 61.742188 186.910156 61.742188 C 186.910156 61.742188 177.761719 76.824219 180.578125 77.695312 C 183.40625 78.5625 184.273438 81.167969 183.621094 84.757812 C 182.980469 88.277344 179.605469 91.375 176.132812 88.984375 C 173.691406 87.316406 174.355469 84.398438 174.972656 82.816406 C 175.339844 81.871094 175.40625 80.828125 175.097656 79.863281 C 172.734375 72.503906 161.695312 72.597656 161.695312 72.597656 C 172.445312 87.46875 172.328125 95.929688 172.328125 95.929688 L 201.601562 95.929688 C 201.601562 95.929688 201.484375 87.46875 212.234375 72.597656 C 212.234375 72.597656 201.195312 72.503906 198.832031 79.863281 " fill-opacity="1" fill-rule="nonzero"/></g><path fill="#dbbe67" d="M 199.914062 98 L 174.015625 98 C 173.148438 98 172.441406 98.703125 172.441406 99.570312 C 172.441406 100.441406 173.148438 101.148438 174.015625 101.148438 L 199.914062 101.148438 C 200.785156 101.148438 201.488281 100.441406 201.488281 99.570312 C 201.488281 98.703125 200.785156 98 199.914062 98 " fill-opacity="1" fill-rule="nonzero"/><path fill="#dbbe67" d="M 189.882812 105.769531 C 188.789062 104.398438 186.789062 104.171875 185.414062 105.269531 C 184.042969 106.363281 183.816406 108.363281 184.914062 109.738281 C 186.007812 111.109375 188.007812 111.335938 189.378906 110.238281 C 190.753906 109.144531 190.980469 107.144531 189.882812 105.769531 " fill-opacity="1" fill-rule="nonzero"/><path fill="#dbbe67" d="M 174.160156 107.457031 C 173.675781 107.886719 173.617188 108.476562 173.601562 109.085938 C 173.585938 109.597656 172.945312 109.617188 172.769531 109.199219 C 172.46875 108.484375 172.605469 107.671875 173.132812 107.097656 C 173.453125 106.75 174.339844 106.234375 174.738281 106.730469 C 174.964844 107.007812 174.300781 107.328125 174.160156 107.457031 Z M 174.324219 105.640625 C 172.570312 105.640625 171.144531 107.066406 171.144531 108.820312 C 171.144531 110.578125 172.570312 112 174.324219 112 C 176.082031 112 177.503906 110.578125 177.503906 108.820312 C 177.503906 107.066406 176.082031 105.640625 174.324219 105.640625 " fill-opacity="1" fill-rule="nonzero"/><path fill="#dbbe67" d="M 162.546875 110.945312 C 162.261719 111.328125 161.839844 111.539062 161.582031 111.957031 C 161.316406 112.394531 161.183594 112.925781 161.082031 113.425781 C 161.011719 113.773438 160.421875 113.789062 160.363281 113.425781 C 160.246094 112.695312 160.332031 112.015625 160.777344 111.402344 C 161.132812 110.917969 161.757812 110.449219 162.382812 110.546875 C 162.546875 110.570312 162.644531 110.816406 162.546875 110.945312 Z M 162.773438 109.617188 C 161.070312 109.183594 159.34375 110.214844 158.910156 111.917969 C 158.476562 113.617188 159.507812 115.347656 161.210938 115.78125 C 162.910156 116.214844 164.640625 115.183594 165.074219 113.480469 C 165.503906 111.78125 164.476562 110.050781 162.773438 109.617188 " fill-opacity="1" fill-rule="nonzero"/><path fill="#dbbe67" d="M 151.113281 117.097656 C 150.792969 117.441406 150.382812 117.609375 150.128906 118.03125 C 149.890625 118.429688 149.789062 118.960938 149.8125 119.421875 C 149.839844 119.847656 149.25 119.863281 149.117188 119.515625 C 148.859375 118.808594 148.957031 118.128906 149.375 117.503906 C 149.707031 117.007812 150.359375 116.480469 150.992188 116.636719 C 151.199219 116.691406 151.25 116.953125 151.113281 117.097656 Z M 150.828125 115.878906 C 149.070312 115.878906 147.644531 117.304688 147.644531 119.058594 C 147.644531 120.816406 149.070312 122.238281 150.828125 122.238281 C 152.582031 122.238281 154.007812 120.816406 154.007812 119.058594 C 154.007812 117.304688 152.582031 115.878906 150.828125 115.878906 " fill-opacity="1" fill-rule="nonzero"/><path fill="#dbbe67" d="M 141.769531 125.070312 C 141.414062 125.316406 141.035156 125.421875 140.734375 125.761719 C 140.445312 126.097656 140.304688 126.53125 140.203125 126.953125 C 140.105469 127.34375 139.445312 127.378906 139.375 126.953125 C 139.261719 126.226562 139.460938 125.546875 140.003906 125.03125 C 140.445312 124.613281 141.203125 124.316406 141.769531 124.636719 C 141.945312 124.734375 141.921875 124.96875 141.769531 125.070312 Z M 141.308594 123.386719 C 139.550781 123.386719 138.128906 124.8125 138.128906 126.566406 C 138.128906 128.324219 139.550781 129.746094 141.308594 129.746094 C 143.066406 129.746094 144.488281 128.324219 144.488281 126.566406 C 144.488281 124.8125 143.066406 123.386719 141.308594 123.386719 " fill-opacity="1" fill-rule="nonzero"/><path fill="#dbbe67" d="M 133.566406 133.675781 C 132.972656 134.082031 132.503906 134.378906 132.421875 135.1875 C 132.386719 135.523438 131.882812 135.644531 131.796875 135.273438 C 131.644531 134.617188 131.804688 134.046875 132.3125 133.597656 C 132.632812 133.316406 133.140625 133.023438 133.566406 133.222656 C 133.757812 133.3125 133.714844 133.574219 133.566406 133.675781 Z M 133.757812 132.308594 C 132 132.308594 130.578125 133.734375 130.578125 135.488281 C 130.578125 137.246094 132 138.667969 133.757812 138.667969 C 135.511719 138.667969 136.9375 137.246094 136.9375 135.488281 C 136.9375 133.734375 135.511719 132.308594 133.757812 132.308594 " fill-opacity="1" fill-rule="nonzero"/><path fill="#dbbe67" d="M 127.214844 144.742188 C 126.953125 144.992188 126.640625 145.15625 126.433594 145.464844 C 126.230469 145.769531 126.097656 146.171875 126.027344 146.527344 C 125.960938 146.882812 125.484375 146.746094 125.449219 146.449219 C 125.339844 145.507812 125.988281 144.339844 127.070312 144.386719 C 127.242188 144.394531 127.351562 144.613281 127.214844 144.742188 Z M 127.398438 143.4375 C 125.640625 143.4375 124.21875 144.863281 124.21875 146.617188 C 124.21875 148.375 125.640625 149.796875 127.398438 149.796875 C 129.152344 149.796875 130.578125 148.375 130.578125 146.617188 C 130.578125 144.863281 129.152344 143.4375 127.398438 143.4375 " fill-opacity="1" fill-rule="nonzero"/><path fill="#dbbe67" d="M 123.488281 158.128906 C 123.257812 158.480469 122.871094 158.679688 122.644531 159.046875 C 122.40625 159.433594 122.375 159.902344 122.292969 160.335938 C 122.210938 160.769531 121.640625 160.667969 121.511719 160.335938 C 121.273438 159.726562 121.40625 159.066406 121.769531 158.535156 C 122.074219 158.097656 122.660156 157.609375 123.226562 157.671875 C 123.4375 157.695312 123.628906 157.917969 123.488281 158.128906 Z M 123.386719 156.890625 C 121.632812 156.890625 120.207031 158.316406 120.207031 160.070312 C 120.207031 161.828125 121.632812 163.25 123.386719 163.25 C 125.144531 163.25 126.566406 161.828125 126.566406 160.070312 C 126.566406 158.316406 125.144531 156.890625 123.386719 156.890625 " fill-opacity="1" fill-rule="nonzero"/><path fill="#dbbe67" d="M 122.335938 171.382812 C 121.992188 171.550781 121.628906 171.628906 121.375 171.9375 C 121.117188 172.246094 121.046875 172.667969 120.941406 173.046875 C 120.84375 173.394531 120.296875 173.421875 120.214844 173.046875 C 119.960938 171.910156 120.890625 170.234375 122.253906 170.769531 C 122.5 170.863281 122.625 171.242188 122.335938 171.382812 Z M 122.152344 169.675781 C 120.394531 169.675781 118.972656 171.097656 118.972656 172.855469 C 118.972656 174.609375 120.394531 176.035156 122.152344 176.035156 C 123.90625 176.035156 125.332031 174.609375 125.332031 172.855469 C 125.332031 171.097656 123.90625 169.675781 122.152344 169.675781 " fill-opacity="1" fill-rule="nonzero"/><path fill="#dbbe67" d="M 122.328125 125.816406 C 121.371094 129.363281 119.226562 132.457031 118.484375 136.0625 C 118.453125 136.214844 118.207031 136.179688 118.214844 136.027344 C 118.339844 132.960938 119.695312 130.265625 120.691406 127.410156 C 121.9375 123.824219 122.34375 115.886719 122.441406 116.3125 C 123.179688 119.5 123.183594 122.648438 122.328125 125.816406 Z M 114.691406 187.609375 C 114.871094 187.675781 107.828125 186.195312 103.429688 180.984375 C 97.359375 173.792969 95.996094 168.496094 96.210938 168.890625 C 100.226562 176.246094 106.550781 184.636719 114.691406 187.609375 Z M 108.714844 134.261719 C 108.703125 141.535156 105.996094 148.203125 104.941406 155.316406 C 103.851562 162.640625 106.535156 169.605469 110.707031 175.523438 C 110.800781 175.660156 110.582031 175.828125 110.472656 175.703125 C 106.320312 170.875 103.671875 164.472656 103.441406 158.078125 C 103.148438 149.964844 108.714844 133.6875 108.714844 134.261719 Z M 110.125 148.15625 C 107.652344 163.25 110.402344 168.144531 110.339844 168.0625 C 104.394531 160.070312 110.21875 147.589844 110.125 148.15625 Z M 163.0625 94.09375 C 161.230469 87.496094 153.652344 87.070312 149.160156 91.308594 C 146.554688 93.777344 144.839844 96.824219 143.640625 100.117188 C 142.152344 96.328125 138.417969 93.820312 133.847656 95.527344 C 131.160156 96.527344 128.617188 98.941406 127.921875 101.78125 C 127.507812 103.441406 127.796875 105.328125 128.800781 106.652344 C 129.355469 107.582031 130.359375 108.210938 131.519531 108.210938 C 133.277344 108.210938 134.699219 106.785156 134.699219 105.03125 C 134.699219 103.273438 133.277344 101.851562 131.519531 101.851562 C 131.113281 101.851562 130.726562 101.933594 130.371094 102.074219 C 130.816406 100.429688 132.101562 98.96875 133.964844 98.019531 C 137.96875 95.972656 141.738281 98.835938 142.019531 103.039062 C 142.457031 109.609375 136.671875 116.570312 132.257812 120.785156 C 129.300781 123.601562 126.25 126.6875 123.554688 130.054688 C 125.511719 127.210938 126.671875 123.460938 126.167969 120 C 125.925781 118.324219 125.273438 116.65625 124.027344 115.476562 C 123.488281 114.96875 122.890625 114.546875 122.355469 114.019531 C 121.941406 113.613281 120.394531 112.703125 120.210938 112.269531 C 122.847656 118.539062 119.675781 126.488281 117.558594 132.527344 C 116.546875 135.402344 115.355469 138.207031 114.003906 140.925781 C 113.8125 141.292969 113.601562 141.65625 113.367188 142.035156 C 114.003906 137.417969 113.554688 132.652344 112.128906 128.21875 C 111.40625 125.984375 110.433594 123.824219 109.207031 121.824219 C 108.664062 120.941406 108.164062 120.058594 107.640625 119.171875 C 107.242188 118.496094 105.960938 117.496094 105.769531 116.839844 C 105.996094 117.609375 106.164062 118.390625 106.3125 119.175781 C 107.816406 127.226562 104.339844 135.855469 102.15625 143.476562 C 99.929688 151.261719 97.871094 159.859375 101.164062 167.660156 C 100.480469 167.660156 98.640625 165.511719 98.128906 165.019531 C 97.132812 164.054688 96.195312 163.015625 95.464844 161.832031 C 93.8125 159.160156 93.613281 156.847656 93.347656 153.753906 C 91 157.542969 91.339844 163.257812 92.242188 167.433594 C 93.203125 171.871094 95.25 176.070312 98.175781 179.542969 C 100.941406 182.828125 104.523438 185.148438 108.136719 187.398438 C 109.65625 188.339844 111.070312 189.355469 112.472656 190.402344 C 110.304688 189.777344 108.019531 189.554688 105.628906 189.917969 C 98.339844 191.050781 93.570312 197.953125 93.957031 205.136719 C 94.359375 212.390625 99.46875 218.949219 107.371094 216.996094 C 114.25 215.300781 116.402344 204.414062 109.25 202.695312 C 109.171875 202.675781 109.09375 202.679688 109.015625 202.699219 C 108.839844 202.667969 108.664062 202.644531 108.480469 202.644531 C 106.726562 202.644531 105.304688 204.066406 105.304688 205.824219 C 105.304688 207.578125 106.726562 209.003906 108.480469 209.003906 C 109.816406 209.003906 110.957031 208.179688 111.425781 207.011719 C 112.28125 209.738281 110.957031 212.996094 107.9375 214.320312 C 103.332031 216.347656 98.714844 213.734375 97.136719 209.257812 C 94.359375 201.378906 98.972656 192.15625 107.890625 192.085938 C 114.855469 192.03125 121.121094 197.730469 125.816406 202.316406 C 130.824219 207.203125 135.554688 212.207031 141.128906 216.441406 C 141.585938 216.792969 141.984375 217.019531 142.527344 216.851562 C 135.5 207.902344 130.136719 202.402344 127.824219 199.386719 C 123.421875 193.640625 120.554688 187.941406 118.113281 181.132812 C 114.484375 171.007812 113.40625 159.757812 116.191406 149.289062 C 117.398438 144.746094 119.332031 140.378906 122.082031 136.34375 C 124.671875 132.542969 127.214844 128.796875 130.527344 125.617188 C 135.558594 120.769531 141.3125 115.371094 143.503906 108.484375 C 143.816406 107.492188 144.046875 106.5 144.199219 105.480469 C 145.589844 100.28125 148.203125 94.386719 152.183594 91.886719 C 155.75 89.648438 160.28125 91.019531 160.972656 95.464844 C 161.296875 97.527344 160.867188 99.425781 159.800781 100.75 C 159.703125 100.382812 159.542969 100.019531 159.304688 99.691406 C 158.273438 98.269531 156.285156 97.953125 154.863281 98.980469 C 153.441406 100.011719 153.125 102 154.15625 103.421875 C 154.835938 104.363281 155.933594 104.808594 157.011719 104.710938 C 158.675781 104.746094 160.371094 103.871094 161.472656 102.5625 C 163.363281 100.332031 163.828125 96.855469 163.0625 94.09375 " fill-opacity="1" fill-rule="nonzero"/><path fill="#dbbe67" d="M 252.640625 116.3125 C 252.738281 115.886719 253.148438 123.824219 254.394531 127.410156 C 255.386719 130.265625 256.742188 132.960938 256.871094 136.027344 C 256.878906 136.179688 256.632812 136.214844 256.601562 136.0625 C 255.855469 132.457031 253.710938 129.363281 252.753906 125.816406 C 251.898438 122.648438 251.902344 119.5 252.640625 116.3125 Z M 278.875 168.890625 C 279.089844 168.496094 277.726562 173.792969 271.652344 180.984375 C 267.257812 186.195312 260.210938 187.675781 260.394531 187.609375 C 268.535156 184.636719 274.855469 176.246094 278.875 168.890625 Z M 271.644531 158.078125 C 271.414062 164.472656 268.765625 170.875 264.609375 175.703125 C 264.503906 175.828125 264.28125 175.660156 264.378906 175.523438 C 268.550781 169.605469 271.234375 162.640625 270.144531 155.316406 C 269.085938 148.203125 266.382812 141.535156 266.371094 134.261719 C 266.371094 133.6875 271.933594 149.964844 271.644531 158.078125 Z M 264.746094 168.0625 C 264.683594 168.144531 267.429688 163.25 264.957031 148.15625 C 264.867188 147.589844 270.6875 160.070312 264.746094 168.0625 Z M 213.609375 102.5625 C 214.714844 103.871094 216.410156 104.746094 218.070312 104.710938 C 219.148438 104.808594 220.25 104.363281 220.929688 103.421875 C 221.960938 102 221.640625 100.011719 220.21875 98.980469 C 218.796875 97.953125 216.808594 98.269531 215.78125 99.691406 C 215.539062 100.019531 215.382812 100.382812 215.285156 100.75 C 214.214844 99.425781 213.785156 97.527344 214.113281 95.464844 C 214.804688 91.019531 219.332031 89.648438 222.902344 91.886719 C 226.882812 94.386719 229.492188 100.28125 230.886719 105.480469 C 231.039062 106.5 231.265625 107.492188 231.570312 108.449219 C 233.769531 115.371094 239.527344 120.769531 244.558594 125.617188 C 247.867188 128.796875 250.414062 132.542969 253.003906 136.34375 C 255.75 140.378906 257.683594 144.746094 258.894531 149.289062 C 261.679688 159.757812 260.601562 171.007812 256.96875 181.132812 C 254.53125 187.941406 251.664062 193.640625 247.261719 199.386719 C 244.949219 202.402344 239.582031 207.902344 232.554688 216.851562 C 233.097656 217.019531 233.496094 216.792969 233.957031 216.441406 C 239.53125 212.207031 244.261719 207.203125 249.265625 202.316406 C 253.964844 197.730469 260.230469 192.03125 267.195312 192.085938 C 276.109375 192.15625 280.726562 201.378906 277.945312 209.257812 C 276.367188 213.734375 271.75 216.347656 267.148438 214.320312 C 264.128906 212.996094 262.804688 209.738281 263.65625 207.011719 C 264.128906 208.179688 265.265625 209.003906 266.601562 209.003906 C 268.359375 209.003906 269.78125 207.578125 269.78125 205.824219 C 269.78125 204.066406 268.359375 202.644531 266.601562 202.644531 C 266.421875 202.644531 266.246094 202.667969 266.070312 202.699219 C 265.992188 202.679688 265.910156 202.675781 265.835938 202.695312 C 258.679688 204.414062 260.835938 215.300781 267.710938 216.996094 C 275.617188 218.949219 280.726562 212.390625 281.125 205.136719 C 281.515625 197.953125 276.746094 191.050781 269.457031 189.917969 C 267.066406 189.554688 264.78125 189.777344 262.613281 190.402344 C 264.015625 189.355469 265.429688 188.339844 266.945312 187.398438 C 270.5625 185.148438 274.144531 182.828125 276.910156 179.542969 C 279.835938 176.070312 281.882812 171.871094 282.84375 167.433594 C 283.742188 163.257812 284.085938 157.542969 281.734375 153.753906 C 281.46875 156.847656 281.269531 159.160156 279.621094 161.832031 C 278.886719 163.015625 277.949219 164.054688 276.953125 165.019531 C 276.441406 165.511719 274.601562 167.660156 273.917969 167.660156 C 277.214844 159.859375 275.152344 151.261719 272.925781 143.476562 C 270.746094 135.855469 267.265625 127.226562 268.773438 119.175781 C 268.917969 118.390625 269.089844 117.609375 269.316406 116.839844 C 269.121094 117.496094 267.84375 118.496094 267.441406 119.171875 C 266.917969 120.058594 266.417969 120.941406 265.878906 121.824219 C 264.648438 123.824219 263.675781 125.984375 262.957031 128.21875 C 261.527344 132.652344 261.082031 137.417969 261.71875 142.035156 C 261.480469 141.65625 261.269531 141.292969 261.082031 140.925781 C 259.726562 138.207031 258.539062 135.402344 257.523438 132.527344 C 255.410156 126.488281 252.238281 118.539062 254.871094 112.269531 C 254.691406 112.703125 253.140625 113.613281 252.730469 114.019531 C 252.191406 114.546875 251.597656 114.96875 251.058594 115.476562 C 249.8125 116.65625 249.15625 118.324219 248.914062 120 C 248.414062 123.460938 249.574219 127.210938 251.53125 130.054688 C 248.832031 126.6875 245.78125 123.601562 242.828125 120.785156 C 238.410156 116.570312 232.628906 109.609375 233.0625 103.039062 C 233.347656 98.835938 237.113281 95.972656 241.121094 98.019531 C 242.980469 98.96875 244.269531 100.429688 244.714844 102.074219 C 244.355469 101.933594 243.972656 101.851562 243.5625 101.851562 C 241.808594 101.851562 240.382812 103.273438 240.382812 105.03125 C 240.382812 106.785156 241.808594 108.210938 243.5625 108.210938 C 244.726562 108.210938 245.730469 107.582031 246.285156 106.652344 C 247.289062 105.328125 247.574219 103.441406 247.160156 101.78125 C 246.464844 98.941406 243.921875 96.527344 241.238281 95.527344 C 236.664062 93.820312 232.929688 96.328125 231.441406 100.117188 C 230.242188 96.824219 228.53125 93.777344 225.921875 91.308594 C 221.433594 87.070312 213.851562 87.496094 212.023438 94.09375 C 211.257812 96.855469 211.71875 100.332031 213.609375 102.5625 " fill-opacity="1" fill-rule="nonzero"/><path fill="#dbbe67" d="M 123.296875 118.539062 C 123.261719 118.25 122.996094 118.125 122.78125 118.171875 C 123.09375 120.386719 123.039062 122.585938 122.570312 124.792969 C 122.65625 124.757812 122.734375 124.703125 122.796875 124.605469 C 123.851562 122.984375 123.535156 120.351562 123.296875 118.539062 " fill-opacity="1" fill-rule="nonzero"/><path fill="#dbbe67" d="M 128.328125 116.769531 C 128.328125 115.984375 128.960938 115.351562 129.746094 115.351562 C 130.53125 115.351562 131.167969 115.984375 131.167969 116.769531 C 131.167969 117.554688 130.53125 118.191406 129.746094 118.191406 C 128.960938 118.191406 128.328125 117.554688 128.328125 116.769531 " fill-opacity="1" fill-rule="nonzero"/><path fill="#dbbe67" d="M 103.765625 197.390625 C 103.765625 196.609375 104.398438 195.972656 105.183594 195.972656 C 105.96875 195.972656 106.605469 196.609375 106.605469 197.390625 C 106.605469 198.175781 105.96875 198.8125 105.183594 198.8125 C 104.398438 198.8125 103.765625 198.175781 103.765625 197.390625 " fill-opacity="1" fill-rule="nonzero"/><path fill="#dbbe67" d="M 99.257812 202.722656 C 99.257812 201.9375 99.894531 201.304688 100.679688 201.304688 C 101.464844 201.304688 102.101562 201.9375 102.101562 202.722656 C 102.101562 203.507812 101.464844 204.144531 100.679688 204.144531 C 99.894531 204.144531 99.257812 203.507812 99.257812 202.722656 " fill-opacity="1" fill-rule="nonzero"/><path fill="#dbbe67" d="M 101.179688 210.300781 C 101.179688 209.515625 101.816406 208.878906 102.601562 208.878906 C 103.386719 208.878906 104.023438 209.515625 104.023438 210.300781 C 104.023438 211.085938 103.386719 211.722656 102.601562 211.722656 C 101.816406 211.722656 101.179688 211.085938 101.179688 210.300781 " fill-opacity="1" fill-rule="nonzero"/><path fill="#dbbe67" d="M 111.449219 197.390625 C 111.449219 196.609375 112.085938 195.972656 112.871094 195.972656 C 113.65625 195.972656 114.292969 196.609375 114.292969 197.390625 C 114.292969 198.175781 113.65625 198.8125 112.871094 198.8125 C 112.085938 198.8125 111.449219 198.175781 111.449219 197.390625 " fill-opacity="1" fill-rule="nonzero"/><path fill="#dbbe67" d="M 117.550781 202.722656 C 117.550781 201.9375 118.1875 201.304688 118.972656 201.304688 C 119.757812 201.304688 120.390625 201.9375 120.390625 202.722656 C 120.390625 203.507812 119.757812 204.144531 118.972656 204.144531 C 118.1875 204.144531 117.550781 203.507812 117.550781 202.722656 " fill-opacity="1" fill-rule="nonzero"/><path fill="#dbbe67" d="M 122.117188 208.003906 C 122.117188 207.21875 122.753906 206.582031 123.535156 206.582031 C 124.320312 206.582031 124.957031 207.21875 124.957031 208.003906 C 124.957031 208.789062 124.320312 209.425781 123.535156 209.425781 C 122.753906 209.425781 122.117188 208.789062 122.117188 208.003906 " fill-opacity="1" fill-rule="nonzero"/><path fill="#dbbe67" d="M 128.328125 213.140625 C 128.328125 212.359375 128.960938 211.722656 129.746094 211.722656 C 130.53125 211.722656 131.167969 212.359375 131.167969 213.140625 C 131.167969 213.925781 130.53125 214.5625 129.746094 214.5625 C 128.960938 214.5625 128.328125 213.925781 128.328125 213.140625 " fill-opacity="1" fill-rule="nonzero"/><path fill="#dbbe67" d="M 132.742188 112 C 132.742188 111.214844 133.378906 110.582031 134.164062 110.582031 C 134.949219 110.582031 135.585938 111.214844 135.585938 112 C 135.585938 112.785156 134.949219 113.421875 134.164062 113.421875 C 133.378906 113.421875 132.742188 112.785156 132.742188 112 " fill-opacity="1" fill-rule="nonzero"/><g clip-path="url(#89b74e2b0d)"><path fill="#dbbe67" d="M 102.601562 186.375 C 102.691406 186.640625 97.210938 192.203125 91.558594 191.144531 C 85.90625 190.085938 87.585938 183.019531 82.816406 181.957031 C 82.816406 181.957031 87.675781 179.574219 92.710938 184.429688 C 96.980469 188.550781 102.601562 186.375 102.601562 186.375 " fill-opacity="1" fill-rule="nonzero"/></g><g clip-path="url(#c502cc14d4)"><path fill="#dbbe67" d="M 187.398438 257.542969 C 181.027344 245.898438 187.398438 245.730469 187.398438 245.730469 C 187.398438 245.730469 193.769531 245.898438 187.398438 257.542969 Z M 197.265625 250.324219 C 196.207031 248.261719 195.347656 246.027344 193.699219 244.402344 C 192.050781 242.773438 189.28125 241.726562 187.398438 243.070312 C 185.511719 241.726562 182.746094 242.773438 181.097656 244.402344 C 179.449219 246.027344 178.589844 248.261719 177.527344 250.324219 C 176.46875 252.386719 175.019531 254.457031 172.828125 255.199219 C 175.820312 256.296875 179.355469 255.742188 181.875 253.789062 C 182.898438 257.144531 184.84375 259.605469 187.398438 262.007812 C 189.953125 259.605469 191.894531 257.144531 192.921875 253.789062 C 195.441406 255.742188 198.976562 256.296875 201.964844 255.199219 C 199.777344 254.457031 198.328125 252.386719 197.265625 250.324219 " fill-opacity="1" fill-rule="nonzero"/></g><path fill="#dbbe67" d="M 141.597656 229.523438 C 124.128906 224.96875 114.183594 235.160156 114.445312 234.753906 C 119.023438 227.5625 130.265625 226.121094 137.972656 227 C 149.875 228.359375 160.585938 234.683594 172.730469 234.539062 C 173.523438 234.527344 171.585938 237.339844 141.597656 229.523438 Z M 150.960938 237.125 C 141.199219 236.414062 135.554688 241.566406 135.671875 241.410156 C 142.988281 231.796875 152.992188 236.28125 165.3125 237.59375 C 165.996094 237.664062 162.175781 237.945312 150.960938 237.125 Z M 123.277344 223.007812 C 129.585938 220.089844 137.308594 221.453125 143.71875 223.34375 C 144.351562 223.53125 136.527344 223.050781 133 222.886719 C 129.753906 222.730469 122.988281 223.144531 123.277344 223.007812 Z M 191.175781 217.394531 C 188.925781 214.40625 185.480469 212.574219 181.742188 212.363281 C 179.0625 212.214844 174.453125 213.09375 173.375 216.746094 C 173.289062 217.035156 173.25 217.585938 173.277344 218.125 C 173.273438 218.171875 173.261719 218.214844 173.261719 218.261719 C 173.261719 220.015625 174.6875 221.441406 176.441406 221.441406 C 178.199219 221.441406 179.621094 220.015625 179.621094 218.261719 C 179.621094 216.503906 178.199219 215.082031 176.441406 215.082031 C 176.296875 215.082031 176.15625 215.105469 176.015625 215.125 C 178.792969 212.710938 184.316406 213.636719 186.707031 216.144531 C 188.105469 217.613281 188.769531 220.234375 188.621094 222.222656 C 188.441406 224.625 187.109375 226.738281 185.382812 228.347656 C 181.09375 232.351562 176.066406 232.929688 170.484375 231.859375 C 161.402344 230.089844 153.558594 224.945312 145.246094 221.1875 C 141.851562 219.65625 138.308594 218.148438 134.574219 217.726562 C 130.734375 217.289062 126.695312 217.949219 122.949219 218.820312 C 119.449219 219.636719 116.007812 220.878906 112.941406 222.769531 C 110.371094 224.355469 106.253906 227.261719 105.695312 230.476562 C 110.222656 228.167969 115.625 226.003906 120.796875 226.003906 C 118.878906 226.023438 115.796875 228.570312 114.316406 229.664062 C 112.253906 231.195312 110.382812 232.976562 108.753906 234.960938 C 105.574219 238.824219 102.433594 243.902344 102.527344 249.074219 C 102.515625 248.34375 110.460938 240.121094 127.195312 235.914062 C 128.84375 235.496094 130.558594 235.402344 132.257812 235.300781 C 133.398438 235.234375 136.28125 235.800781 137.214844 235.296875 C 134.152344 237.027344 131.617188 239.582031 130.074219 242.800781 C 128.492188 246.109375 127.3125 251.703125 129.6875 254.929688 C 131.140625 252.230469 132.34375 249.304688 134.683594 247.242188 C 136.660156 245.5 139.113281 244.402344 141.632812 243.699219 C 146.777344 242.261719 152.179688 242.375 157.46875 242.375 C 167.125 242.445312 178.160156 243.351562 186.476562 237.441406 C 192.671875 233.023438 196.179688 224.039062 191.175781 217.394531 " fill-opacity="1" fill-rule="nonzero"/><path fill="#dbbe67" d="M 176.621094 245.359375 C 176.621094 245.359375 169.554688 243.964844 161.726562 249.828125 C 155.953125 254.148438 149.957031 252.507812 149.957031 252.507812 C 149.957031 252.507812 159.664062 259.863281 166.9375 253.292969 C 173.882812 247.019531 176.621094 245.359375 176.621094 245.359375 " fill-opacity="1" fill-rule="nonzero"/><path fill="#dbbe67" d="M 200.257812 106.730469 C 200.65625 106.234375 201.542969 106.75 201.859375 107.097656 C 202.386719 107.671875 202.527344 108.484375 202.226562 109.199219 C 202.050781 109.617188 201.410156 109.597656 201.394531 109.085938 C 201.378906 108.476562 201.320312 107.886719 200.835938 107.457031 C 200.691406 107.328125 200.03125 107.007812 200.257812 106.730469 Z M 197.488281 108.820312 C 197.488281 110.578125 198.914062 112 200.667969 112 C 202.425781 112 203.851562 110.578125 203.851562 108.820312 C 203.851562 107.066406 202.425781 105.640625 200.667969 105.640625 C 198.914062 105.640625 197.488281 107.066406 197.488281 108.820312 " fill-opacity="1" fill-rule="nonzero"/><path fill="#dbbe67" d="M 212.609375 110.546875 C 213.238281 110.449219 213.863281 110.917969 214.21875 111.402344 C 214.664062 112.015625 214.75 112.695312 214.632812 113.425781 C 214.574219 113.789062 213.984375 113.773438 213.914062 113.425781 C 213.8125 112.925781 213.679688 112.394531 213.414062 111.957031 C 213.15625 111.539062 212.730469 111.328125 212.449219 110.945312 C 212.351562 110.816406 212.449219 110.570312 212.609375 110.546875 Z M 209.921875 113.480469 C 210.355469 115.183594 212.082031 116.214844 213.785156 115.78125 C 215.488281 115.347656 216.515625 113.617188 216.085938 111.917969 C 215.652344 110.214844 213.921875 109.183594 212.222656 109.617188 C 210.519531 110.050781 209.488281 111.78125 209.921875 113.480469 " fill-opacity="1" fill-rule="nonzero"/><path fill="#dbbe67" d="M 224.003906 116.636719 C 224.636719 116.480469 225.289062 117.007812 225.621094 117.503906 C 226.035156 118.128906 226.136719 118.808594 225.875 119.515625 C 225.746094 119.863281 225.15625 119.847656 225.179688 119.421875 C 225.207031 118.960938 225.105469 118.429688 224.863281 118.03125 C 224.613281 117.609375 224.199219 117.441406 223.882812 117.097656 C 223.746094 116.953125 223.796875 116.691406 224.003906 116.636719 Z M 220.988281 119.058594 C 220.988281 120.816406 222.414062 122.238281 224.167969 122.238281 C 225.925781 122.238281 227.347656 120.816406 227.347656 119.058594 C 227.347656 117.304688 225.925781 115.878906 224.167969 115.878906 C 222.414062 115.878906 220.988281 117.304688 220.988281 119.058594 " fill-opacity="1" fill-rule="nonzero"/><path fill="#dbbe67" d="M 233.222656 124.636719 C 233.789062 124.316406 234.550781 124.613281 234.992188 125.03125 C 235.535156 125.546875 235.734375 126.226562 235.617188 126.953125 C 235.550781 127.378906 234.886719 127.34375 234.792969 126.953125 C 234.691406 126.53125 234.550781 126.097656 234.257812 125.761719 C 233.960938 125.421875 233.582031 125.316406 233.222656 125.070312 C 233.074219 124.96875 233.050781 124.734375 233.222656 124.636719 Z M 230.507812 126.566406 C 230.507812 128.324219 231.929688 129.746094 233.6875 129.746094 C 235.441406 129.746094 236.867188 128.324219 236.867188 126.566406 C 236.867188 124.8125 235.441406 123.386719 233.6875 123.386719 C 231.929688 123.386719 230.507812 124.8125 230.507812 126.566406 " fill-opacity="1" fill-rule="nonzero"/><path fill="#dbbe67" d="M 241.429688 133.222656 C 241.855469 133.023438 242.363281 133.316406 242.683594 133.597656 C 243.191406 134.046875 243.351562 134.617188 243.199219 135.273438 C 243.109375 135.644531 242.609375 135.523438 242.574219 135.1875 C 242.492188 134.378906 242.023438 134.082031 241.429688 133.675781 C 241.28125 133.574219 241.234375 133.3125 241.429688 133.222656 Z M 238.058594 135.488281 C 238.058594 137.246094 239.480469 138.667969 241.238281 138.667969 C 242.996094 138.667969 244.417969 137.246094 244.417969 135.488281 C 244.417969 133.734375 242.996094 132.308594 241.238281 132.308594 C 239.480469 132.308594 238.058594 133.734375 238.058594 135.488281 " fill-opacity="1" fill-rule="nonzero"/><path fill="#dbbe67" d="M 247.925781 144.386719 C 249.007812 144.339844 249.65625 145.507812 249.546875 146.449219 C 249.507812 146.746094 249.035156 146.882812 248.96875 146.527344 C 248.898438 146.171875 248.765625 145.769531 248.558594 145.464844 C 248.355469 145.15625 248.042969 144.992188 247.78125 144.742188 C 247.644531 144.613281 247.753906 144.394531 247.925781 144.386719 Z M 244.417969 146.617188 C 244.417969 148.375 245.839844 149.796875 247.597656 149.796875 C 249.355469 149.796875 250.777344 148.375 250.777344 146.617188 C 250.777344 144.863281 249.355469 143.4375 247.597656 143.4375 C 245.839844 143.4375 244.417969 144.863281 244.417969 146.617188 " fill-opacity="1" fill-rule="nonzero"/><path fill="#dbbe67" d="M 251.769531 157.671875 C 252.335938 157.609375 252.921875 158.097656 253.222656 158.535156 C 253.589844 159.066406 253.722656 159.726562 253.484375 160.335938 C 253.355469 160.667969 252.785156 160.769531 252.703125 160.335938 C 252.621094 159.902344 252.585938 159.433594 252.347656 159.046875 C 252.125 158.679688 251.738281 158.480469 251.507812 158.128906 C 251.367188 157.917969 251.558594 157.695312 251.769531 157.671875 Z M 248.425781 160.070312 C 248.425781 161.828125 249.851562 163.25 251.609375 163.25 C 253.363281 163.25 254.785156 161.828125 254.785156 160.070312 C 254.785156 158.316406 253.363281 156.890625 251.609375 156.890625 C 249.851562 156.890625 248.425781 158.316406 248.425781 160.070312 " fill-opacity="1" fill-rule="nonzero"/><path fill="#dbbe67" d="M 252.738281 170.769531 C 254.105469 170.234375 255.035156 171.910156 254.78125 173.046875 C 254.699219 173.421875 254.148438 173.394531 254.054688 173.046875 C 253.949219 172.667969 253.878906 172.246094 253.621094 171.9375 C 253.363281 171.628906 253.003906 171.550781 252.660156 171.382812 C 252.371094 171.242188 252.496094 170.863281 252.738281 170.769531 Z M 249.664062 172.855469 C 249.664062 174.609375 251.085938 176.035156 252.84375 176.035156 C 254.601562 176.035156 256.023438 174.609375 256.023438 172.855469 C 256.023438 171.097656 254.601562 169.675781 252.84375 169.675781 C 251.085938 169.675781 249.664062 171.097656 249.664062 172.855469 " fill-opacity="1" fill-rule="nonzero"/><path fill="#dbbe67" d="M 246.667969 116.769531 C 246.667969 115.984375 246.03125 115.351562 245.246094 115.351562 C 244.460938 115.351562 243.824219 115.984375 243.824219 116.769531 C 243.824219 117.554688 244.460938 118.191406 245.246094 118.191406 C 246.03125 118.191406 246.667969 117.554688 246.667969 116.769531 " fill-opacity="1" fill-rule="nonzero"/><path fill="#dbbe67" d="M 271.230469 197.390625 C 271.230469 196.609375 270.59375 195.972656 269.808594 195.972656 C 269.023438 195.972656 268.390625 196.609375 268.390625 197.390625 C 268.390625 198.175781 269.023438 198.8125 269.808594 198.8125 C 270.59375 198.8125 271.230469 198.175781 271.230469 197.390625 " fill-opacity="1" fill-rule="nonzero"/><path fill="#dbbe67" d="M 275.734375 202.722656 C 275.734375 201.9375 275.101562 201.304688 274.316406 201.304688 C 273.53125 201.304688 272.894531 201.9375 272.894531 202.722656 C 272.894531 203.507812 273.53125 204.144531 274.316406 204.144531 C 275.101562 204.144531 275.734375 203.507812 275.734375 202.722656 " fill-opacity="1" fill-rule="nonzero"/><path fill="#dbbe67" d="M 273.8125 210.300781 C 273.8125 209.515625 273.175781 208.878906 272.390625 208.878906 C 271.605469 208.878906 270.972656 209.515625 270.972656 210.300781 C 270.972656 211.085938 271.605469 211.722656 272.390625 211.722656 C 273.175781 211.722656 273.8125 211.085938 273.8125 210.300781 " fill-opacity="1" fill-rule="nonzero"/><path fill="#dbbe67" d="M 263.546875 197.390625 C 263.546875 196.609375 262.910156 195.972656 262.125 195.972656 C 261.339844 195.972656 260.703125 196.609375 260.703125 197.390625 C 260.703125 198.175781 261.339844 198.8125 262.125 198.8125 C 262.910156 198.8125 263.546875 198.175781 263.546875 197.390625 " fill-opacity="1" fill-rule="nonzero"/><path fill="#dbbe67" d="M 257.445312 202.722656 C 257.445312 201.9375 256.808594 201.304688 256.023438 201.304688 C 255.238281 201.304688 254.601562 201.9375 254.601562 202.722656 C 254.601562 203.507812 255.238281 204.144531 256.023438 204.144531 C 256.808594 204.144531 257.445312 203.507812 257.445312 202.722656 " fill-opacity="1" fill-rule="nonzero"/><path fill="#dbbe67" d="M 252.878906 208.003906 C 252.878906 207.21875 252.242188 206.582031 251.457031 206.582031 C 250.675781 206.582031 250.039062 207.21875 250.039062 208.003906 C 250.039062 208.789062 250.675781 209.425781 251.457031 209.425781 C 252.242188 209.425781 252.878906 208.789062 252.878906 208.003906 " fill-opacity="1" fill-rule="nonzero"/><path fill="#dbbe67" d="M 246.667969 213.140625 C 246.667969 212.359375 246.03125 211.722656 245.246094 211.722656 C 244.460938 211.722656 243.824219 212.359375 243.824219 213.140625 C 243.824219 213.925781 244.460938 214.5625 245.246094 214.5625 C 246.03125 214.5625 246.667969 213.925781 246.667969 213.140625 " fill-opacity="1" fill-rule="nonzero"/><path fill="#dbbe67" d="M 242.253906 112 C 242.253906 111.214844 241.617188 110.582031 240.832031 110.582031 C 240.046875 110.582031 239.410156 111.214844 239.410156 112 C 239.410156 112.785156 240.046875 113.421875 240.832031 113.421875 C 241.617188 113.421875 242.253906 112.785156 242.253906 112 " fill-opacity="1" fill-rule="nonzero"/><g clip-path="url(#9038e9c7b2)"><path fill="#dbbe67" d="M 272.394531 186.375 C 272.304688 186.640625 277.785156 192.203125 283.4375 191.144531 C 289.089844 190.085938 287.410156 183.019531 292.179688 181.957031 C 292.179688 181.957031 287.320312 179.574219 282.285156 184.429688 C 278.015625 188.550781 272.394531 186.375 272.394531 186.375 " fill-opacity="1" fill-rule="nonzero"/></g><path fill="#dbbe67" d="M 201.773438 234.539062 C 213.917969 234.683594 224.628906 228.359375 236.535156 227 C 244.238281 226.121094 255.484375 227.5625 260.0625 234.753906 C 260.320312 235.160156 250.375 224.96875 232.910156 229.523438 C 202.917969 237.339844 200.984375 234.527344 201.773438 234.539062 Z M 209.191406 237.59375 C 221.515625 236.28125 231.515625 231.796875 238.832031 241.410156 C 238.953125 241.566406 233.304688 236.414062 223.542969 237.125 C 212.328125 237.945312 208.511719 237.664062 209.191406 237.59375 Z M 241.507812 222.886719 C 237.980469 223.050781 230.152344 223.53125 230.789062 223.34375 C 237.199219 221.453125 244.917969 220.089844 251.226562 223.007812 C 251.515625 223.144531 244.75 222.730469 241.507812 222.886719 Z M 188.027344 237.441406 C 196.34375 243.351562 207.378906 242.445312 217.035156 242.375 C 222.324219 242.375 227.730469 242.261719 232.875 243.699219 C 235.390625 244.402344 237.84375 245.5 239.820312 247.242188 C 242.164062 249.304688 243.363281 252.230469 244.816406 254.929688 C 247.191406 251.703125 246.015625 246.109375 244.429688 242.800781 C 242.886719 239.582031 240.355469 237.027344 237.292969 235.296875 C 238.226562 235.800781 241.105469 235.234375 242.25 235.300781 C 243.945312 235.402344 245.660156 235.496094 247.308594 235.914062 C 264.042969 240.121094 271.992188 248.34375 271.976562 249.074219 C 272.070312 243.902344 268.933594 238.824219 265.75 234.960938 C 264.121094 232.976562 262.25 231.195312 260.1875 229.664062 C 258.707031 228.570312 255.628906 226.023438 253.710938 226.003906 C 258.882812 226.003906 264.28125 228.167969 268.808594 230.476562 C 268.25 227.261719 264.136719 224.355469 261.566406 222.769531 C 258.496094 220.878906 255.054688 219.636719 251.554688 218.820312 C 247.808594 217.949219 243.769531 217.289062 239.929688 217.726562 C 236.195312 218.148438 232.652344 219.65625 229.261719 221.1875 C 220.945312 224.945312 213.101562 230.089844 204.019531 231.859375 C 198.441406 232.929688 193.410156 232.351562 189.125 228.347656 C 187.394531 226.738281 186.066406 224.625 185.882812 222.222656 C 185.734375 220.234375 186.402344 217.613281 187.800781 216.144531 C 190.1875 213.636719 195.710938 212.710938 198.492188 215.125 C 198.347656 215.105469 198.207031 215.082031 198.0625 215.082031 C 196.304688 215.082031 194.882812 216.503906 194.882812 218.261719 C 194.882812 220.015625 196.304688 221.441406 198.0625 221.441406 C 199.820312 221.441406 201.242188 220.015625 201.242188 218.261719 C 201.242188 218.214844 201.230469 218.171875 201.226562 218.125 C 201.257812 217.585938 201.214844 217.035156 201.128906 216.746094 C 200.050781 213.09375 195.441406 212.214844 192.761719 212.363281 C 189.027344 212.574219 185.582031 214.40625 183.328125 217.394531 C 178.324219 224.039062 181.832031 233.023438 188.027344 237.441406 " fill-opacity="1" fill-rule="nonzero"/><path fill="#dbbe67" d="M 198.375 245.359375 C 198.375 245.359375 205.441406 243.964844 213.269531 249.828125 C 219.042969 254.148438 225.039062 252.507812 225.039062 252.507812 C 225.039062 252.507812 215.332031 259.863281 208.054688 253.292969 C 201.109375 247.019531 198.375 245.359375 198.375 245.359375 " fill-opacity="1" fill-rule="nonzero"/><path fill="#dbbe67" d="M 187.257812 114.757812 C 155.222656 114.757812 129.160156 140.820312 129.160156 172.855469 C 129.160156 201.957031 150.664062 226.121094 178.625 230.304688 C 178.683594 230.316406 178.742188 230.335938 178.804688 230.335938 C 179.136719 230.335938 179.402344 230.070312 179.402344 229.738281 C 179.402344 229.425781 179.160156 229.179688 178.851562 229.152344 C 151.507812 225.023438 130.335938 201.34375 130.335938 172.855469 C 130.335938 141.46875 155.871094 115.933594 187.257812 115.933594 C 218.628906 115.933594 244.164062 141.46875 244.164062 172.855469 C 244.164062 201.5 223.140625 225.226562 195.574219 229.152344 C 195.199219 229.144531 194.933594 229.410156 194.933594 229.738281 C 194.933594 230.070312 195.199219 230.335938 195.527344 230.335938 C 223.699219 226.34375 245.339844 202.109375 245.339844 172.855469 C 245.339844 140.820312 219.289062 114.757812 187.257812 114.757812 " fill-opacity="1" fill-rule="nonzero"/><g clip-path="url(#f248eaca67)"><path fill="#dbbe67" d="M 200.25 94.222656 C 199.710938 94.222656 199.265625 93.789062 199.265625 93.238281 C 199.265625 92.699219 199.710938 92.253906 200.25 92.253906 C 200.800781 92.253906 201.234375 92.699219 201.234375 93.238281 C 201.234375 93.789062 200.800781 94.222656 200.25 94.222656 Z M 195.804688 94.222656 C 195.261719 94.222656 194.820312 93.789062 194.820312 93.238281 C 194.820312 92.699219 195.261719 92.253906 195.804688 92.253906 C 196.351562 92.253906 196.789062 92.699219 196.789062 93.238281 C 196.789062 93.789062 196.351562 94.222656 195.804688 94.222656 Z M 191.355469 94.222656 C 190.8125 94.222656 190.371094 93.789062 190.371094 93.238281 C 190.371094 92.699219 190.8125 92.253906 191.355469 92.253906 C 191.894531 92.253906 192.339844 92.699219 192.339844 93.238281 C 192.339844 93.789062 191.894531 94.222656 191.355469 94.222656 Z M 186.964844 94.210938 C 186.449219 94.175781 186.042969 93.769531 186.042969 93.238281 C 186.042969 92.714844 186.449219 92.300781 186.964844 92.265625 C 187.480469 92.300781 187.890625 92.714844 187.890625 93.238281 C 187.890625 93.769531 187.480469 94.175781 186.964844 94.210938 Z M 182.578125 94.222656 C 182.035156 94.222656 181.59375 93.789062 181.59375 93.238281 C 181.59375 92.699219 182.035156 92.253906 182.578125 92.253906 C 183.117188 92.253906 183.5625 92.699219 183.5625 93.238281 C 183.5625 93.789062 183.117188 94.222656 182.578125 94.222656 Z M 178.128906 94.222656 C 177.578125 94.222656 177.144531 93.789062 177.144531 93.238281 C 177.144531 92.699219 177.578125 92.253906 178.128906 92.253906 C 178.667969 92.253906 179.113281 92.699219 179.113281 93.238281 C 179.113281 93.789062 178.667969 94.222656 178.128906 94.222656 Z M 173.679688 94.222656 C 173.128906 94.222656 172.695312 93.789062 172.695312 93.238281 C 172.695312 92.699219 173.128906 92.253906 173.679688 92.253906 C 174.222656 92.253906 174.664062 92.699219 174.664062 93.238281 C 174.664062 93.789062 174.222656 94.222656 173.679688 94.222656 Z M 198.832031 79.863281 C 198.523438 80.828125 198.589844 81.871094 198.957031 82.816406 C 199.574219 84.398438 200.242188 87.316406 197.800781 88.984375 C 194.324219 91.375 190.949219 88.277344 190.3125 84.757812 C 189.65625 81.167969 190.523438 78.5625 193.351562 77.695312 C 196.167969 76.824219 186.910156 61.742188 186.910156 61.742188 C 186.910156 61.742188 177.761719 76.824219 180.578125 77.695312 C 183.40625 78.5625 184.273438 81.167969 183.621094 84.757812 C 182.980469 88.277344 179.605469 91.375 176.132812 88.984375 C 173.691406 87.316406 174.355469 84.398438 174.972656 82.816406 C 175.339844 81.871094 175.40625 80.828125 175.097656 79.863281 C 172.734375 72.503906 161.695312 72.597656 161.695312 72.597656 C 172.445312 87.46875 172.328125 95.929688 172.328125 95.929688 L 201.601562 95.929688 C 201.601562 95.929688 201.484375 87.46875 212.234375 72.597656 C 212.234375 72.597656 201.195312 72.503906 198.832031 79.863281 " fill-opacity="1" fill-rule="nonzero"/></g><path fill="#dbbe67" d="M 199.914062 98 L 174.015625 98 C 173.148438 98 172.441406 98.703125 172.441406 99.570312 C 172.441406 100.441406 173.148438 101.148438 174.015625 101.148438 L 199.914062 101.148438 C 200.785156 101.148438 201.488281 100.441406 201.488281 99.570312 C 201.488281 98.703125 200.785156 98 199.914062 98 " fill-opacity="1" fill-rule="nonzero"/><g mask="url(#bc02863991)"><g transform="matrix(1, 0, 0, 1, 138, 125)"><g clip-path="url(#d754760202)"><g clip-path="url(#a492f53250)"><path fill="#dbbe67" d="M 49.492188 97.199219 C 49.28125 97.199219 49.109375 97.027344 49.109375 96.8125 L 49.109375 0.683594 C 49.109375 0.472656 49.28125 0.300781 49.492188 0.300781 C 49.707031 0.300781 49.878906 0.472656 49.878906 0.683594 L 49.878906 96.8125 C 49.878906 97.027344 49.707031 97.199219 49.492188 97.199219 Z M 49.492188 97.199219 " fill-opacity="1" fill-rule="nonzero"/></g><path fill="#dbbe67" d="M 57.839844 96.46875 C 57.65625 96.46875 57.496094 96.335938 57.460938 96.152344 L 40.769531 1.480469 C 40.730469 1.269531 40.871094 1.070312 41.082031 1.035156 C 41.289062 1 41.488281 1.136719 41.527344 1.347656 L 58.21875 96.015625 C 58.257812 96.226562 58.117188 96.425781 57.90625 96.460938 C 57.882812 96.464844 57.863281 96.46875 57.839844 96.46875 Z M 57.839844 96.46875 " fill-opacity="1" fill-rule="nonzero"/><path fill="#dbbe67" d="M 57.839844 96.46875 C 57.65625 96.46875 57.496094 96.335938 57.460938 96.152344 L 40.769531 1.480469 C 40.730469 1.269531 40.871094 1.070312 41.082031 1.035156 C 41.289062 1 41.488281 1.136719 41.527344 1.347656 L 58.21875 96.015625 C 58.257812 96.226562 58.117188 96.425781 57.90625 96.460938 C 57.882812 96.464844 57.863281 96.46875 57.839844 96.46875 Z M 57.839844 96.46875 " fill-opacity="1" fill-rule="nonzero"/><path fill="#dbbe67" d="M 65.933594 94.300781 C 65.777344 94.300781 65.628906 94.203125 65.570312 94.046875 L 32.691406 3.714844 C 32.621094 3.515625 32.722656 3.292969 32.921875 3.222656 C 33.121094 3.148438 33.34375 3.25 33.417969 3.449219 L 66.292969 93.785156 C 66.367188 93.984375 66.265625 94.203125 66.066406 94.277344 C 66.023438 94.292969 65.976562 94.300781 65.933594 94.300781 Z M 65.933594 94.300781 " fill-opacity="1" fill-rule="nonzero"/><path fill="#dbbe67" d="M 65.933594 94.300781 C 65.777344 94.300781 65.628906 94.203125 65.570312 94.046875 L 32.691406 3.714844 C 32.621094 3.515625 32.722656 3.292969 32.921875 3.222656 C 33.121094 3.148438 33.34375 3.25 33.417969 3.449219 L 66.292969 93.785156 C 66.367188 93.984375 66.265625 94.203125 66.066406 94.277344 C 66.023438 94.292969 65.976562 94.300781 65.933594 94.300781 Z M 65.933594 94.300781 " fill-opacity="1" fill-rule="nonzero"/><path fill="#dbbe67" d="M 73.527344 90.757812 C 73.394531 90.757812 73.265625 90.691406 73.195312 90.566406 L 25.128906 7.316406 C 25.023438 7.132812 25.085938 6.894531 25.269531 6.789062 C 25.453125 6.683594 25.6875 6.746094 25.792969 6.929688 L 73.859375 90.183594 C 73.964844 90.367188 73.902344 90.601562 73.71875 90.707031 C 73.660156 90.742188 73.59375 90.757812 73.527344 90.757812 Z M 73.527344 90.757812 " fill-opacity="1" fill-rule="nonzero"/><path fill="#dbbe67" d="M 73.527344 90.757812 C 73.394531 90.757812 73.265625 90.691406 73.195312 90.566406 L 25.128906 7.316406 C 25.023438 7.132812 25.085938 6.894531 25.269531 6.789062 C 25.453125 6.683594 25.6875 6.746094 25.792969 6.929688 L 73.859375 90.183594 C 73.964844 90.367188 73.902344 90.601562 73.71875 90.707031 C 73.660156 90.742188 73.59375 90.757812 73.527344 90.757812 Z M 73.527344 90.757812 " fill-opacity="1" fill-rule="nonzero"/><path fill="#dbbe67" d="M 80.390625 85.953125 C 80.28125 85.953125 80.171875 85.90625 80.09375 85.816406 L 18.304688 12.175781 C 18.167969 12.011719 18.1875 11.769531 18.351562 11.632812 C 18.515625 11.496094 18.757812 11.519531 18.894531 11.679688 L 80.683594 85.320312 C 80.820312 85.484375 80.800781 85.726562 80.636719 85.863281 C 80.566406 85.925781 80.476562 85.953125 80.390625 85.953125 Z M 80.390625 85.953125 " fill-opacity="1" fill-rule="nonzero"/><path fill="#dbbe67" d="M 80.390625 85.953125 C 80.28125 85.953125 80.171875 85.90625 80.09375 85.816406 L 18.304688 12.175781 C 18.167969 12.011719 18.1875 11.769531 18.351562 11.632812 C 18.515625 11.496094 18.757812 11.519531 18.894531 11.679688 L 80.683594 85.320312 C 80.820312 85.484375 80.800781 85.726562 80.636719 85.863281 C 80.566406 85.925781 80.476562 85.953125 80.390625 85.953125 Z M 80.390625 85.953125 " fill-opacity="1" fill-rule="nonzero"/><path fill="#dbbe67" d="M 86.3125 80.027344 C 86.226562 80.027344 86.140625 80 86.066406 79.9375 L 12.425781 18.148438 C 12.265625 18.011719 12.242188 17.769531 12.378906 17.605469 C 12.515625 17.441406 12.757812 17.421875 12.921875 17.558594 L 86.5625 79.351562 C 86.722656 79.488281 86.746094 79.730469 86.609375 79.890625 C 86.53125 79.984375 86.425781 80.027344 86.3125 80.027344 Z M 86.3125 80.027344 " fill-opacity="1" fill-rule="nonzero"/><path fill="#dbbe67" d="M 86.3125 80.027344 C 86.226562 80.027344 86.140625 80 86.066406 79.9375 L 12.425781 18.148438 C 12.265625 18.011719 12.242188 17.769531 12.378906 17.605469 C 12.515625 17.441406 12.757812 17.421875 12.921875 17.558594 L 86.5625 79.351562 C 86.722656 79.488281 86.746094 79.730469 86.609375 79.890625 C 86.53125 79.984375 86.425781 80.027344 86.3125 80.027344 Z M 86.3125 80.027344 " fill-opacity="1" fill-rule="nonzero"/><path fill="#dbbe67" d="M 91.121094 73.167969 C 91.054688 73.167969 90.988281 73.148438 90.925781 73.113281 L 7.675781 25.050781 C 7.492188 24.941406 7.429688 24.707031 7.535156 24.523438 C 7.640625 24.339844 7.875 24.277344 8.058594 24.382812 L 91.3125 72.449219 C 91.496094 72.554688 91.558594 72.789062 91.453125 72.972656 C 91.382812 73.097656 91.253906 73.167969 91.121094 73.167969 Z M 91.121094 73.167969 " fill-opacity="1" fill-rule="nonzero"/><path fill="#dbbe67" d="M 91.121094 73.167969 C 91.054688 73.167969 90.988281 73.148438 90.925781 73.113281 L 7.675781 25.050781 C 7.492188 24.941406 7.429688 24.707031 7.535156 24.523438 C 7.640625 24.339844 7.875 24.277344 8.058594 24.382812 L 91.3125 72.449219 C 91.496094 72.554688 91.558594 72.789062 91.453125 72.972656 C 91.382812 73.097656 91.253906 73.167969 91.121094 73.167969 Z M 91.121094 73.167969 " fill-opacity="1" fill-rule="nonzero"/><path fill="#dbbe67" d="M 94.660156 65.574219 C 94.617188 65.574219 94.574219 65.566406 94.527344 65.550781 L 4.195312 32.671875 C 3.996094 32.597656 3.894531 32.378906 3.964844 32.179688 C 4.039062 31.976562 4.257812 31.875 4.457031 31.949219 L 94.792969 64.828125 C 94.992188 64.898438 95.09375 65.121094 95.023438 65.320312 C 94.964844 65.476562 94.816406 65.574219 94.660156 65.574219 Z M 94.660156 65.574219 " fill-opacity="1" fill-rule="nonzero"/><path fill="#dbbe67" d="M 94.660156 65.574219 C 94.617188 65.574219 94.574219 65.566406 94.527344 65.550781 L 4.195312 32.671875 C 3.996094 32.597656 3.894531 32.378906 3.964844 32.179688 C 4.039062 31.976562 4.257812 31.875 4.457031 31.949219 L 94.792969 64.828125 C 94.992188 64.898438 95.09375 65.121094 95.023438 65.320312 C 94.964844 65.476562 94.816406 65.574219 94.660156 65.574219 Z M 94.660156 65.574219 " fill-opacity="1" fill-rule="nonzero"/><g clip-path="url(#fe450275eb)"><path fill="#dbbe67" d="M 96.828125 57.480469 C 96.808594 57.480469 96.785156 57.476562 96.761719 57.472656 L 2.09375 40.78125 C 1.882812 40.742188 1.742188 40.542969 1.78125 40.335938 C 1.816406 40.125 2.015625 39.988281 2.226562 40.023438 L 96.894531 56.714844 C 97.105469 56.753906 97.246094 56.953125 97.207031 57.160156 C 97.175781 57.347656 97.011719 57.480469 96.828125 57.480469 Z M 96.828125 57.480469 " fill-opacity="1" fill-rule="nonzero"/><path fill="#dbbe67" d="M 96.828125 57.480469 C 96.808594 57.480469 96.785156 57.476562 96.761719 57.472656 L 2.09375 40.78125 C 1.882812 40.742188 1.742188 40.542969 1.78125 40.335938 C 1.816406 40.125 2.015625 39.988281 2.226562 40.023438 L 96.894531 56.714844 C 97.105469 56.753906 97.246094 56.953125 97.207031 57.160156 C 97.175781 57.347656 97.011719 57.480469 96.828125 57.480469 Z M 96.828125 57.480469 " fill-opacity="1" fill-rule="nonzero"/></g><g clip-path="url(#e23ae0d311)"><path fill="#dbbe67" d="M 97.558594 49.132812 L 1.429688 49.132812 C 1.214844 49.132812 1.042969 48.960938 1.042969 48.75 C 1.042969 48.535156 1.214844 48.363281 1.429688 48.363281 L 97.558594 48.363281 C 97.773438 48.363281 97.945312 48.535156 97.945312 48.75 C 97.945312 48.960938 97.773438 49.132812 97.558594 49.132812 Z M 97.558594 49.132812 " fill-opacity="1" fill-rule="nonzero"/><path fill="#dbbe67" d="M 97.558594 49.132812 L 1.429688 49.132812 C 1.214844 49.132812 1.042969 48.960938 1.042969 48.75 C 1.042969 48.535156 1.214844 48.363281 1.429688 48.363281 L 97.558594 48.363281 C 97.773438 48.363281 97.945312 48.535156 97.945312 48.75 C 97.945312 48.960938 97.773438 49.132812 97.558594 49.132812 Z M 97.558594 49.132812 " fill-opacity="1" fill-rule="nonzero"/></g><g clip-path="url(#797cce38a8)"><path fill="#dbbe67" d="M 2.160156 57.480469 C 1.976562 57.480469 1.8125 57.347656 1.78125 57.160156 C 1.742188 56.953125 1.882812 56.753906 2.09375 56.714844 L 96.761719 40.023438 C 96.972656 39.988281 97.171875 40.125 97.207031 40.335938 C 97.246094 40.542969 97.105469 40.742188 96.894531 40.78125 L 2.226562 57.472656 C 2.203125 57.476562 2.179688 57.480469 2.160156 57.480469 Z M 2.160156 57.480469 " fill-opacity="1" fill-rule="nonzero"/><path fill="#dbbe67" d="M 2.160156 57.480469 C 1.976562 57.480469 1.8125 57.347656 1.78125 57.160156 C 1.742188 56.953125 1.882812 56.753906 2.09375 56.714844 L 96.761719 40.023438 C 96.972656 39.988281 97.171875 40.125 97.207031 40.335938 C 97.246094 40.542969 97.105469 40.742188 96.894531 40.78125 L 2.226562 57.472656 C 2.203125 57.476562 2.179688 57.480469 2.160156 57.480469 Z M 2.160156 57.480469 " fill-opacity="1" fill-rule="nonzero"/></g><path fill="#dbbe67" d="M 4.328125 65.574219 C 4.171875 65.574219 4.023438 65.476562 3.964844 65.320312 C 3.894531 65.121094 3.996094 64.898438 4.195312 64.828125 L 94.527344 31.949219 C 94.730469 31.875 94.949219 31.976562 95.023438 32.179688 C 95.09375 32.378906 94.992188 32.597656 94.792969 32.671875 L 4.457031 65.550781 C 4.414062 65.566406 4.371094 65.574219 4.328125 65.574219 Z M 4.328125 65.574219 " fill-opacity="1" fill-rule="nonzero"/><path fill="#dbbe67" d="M 4.328125 65.574219 C 4.171875 65.574219 4.023438 65.476562 3.964844 65.320312 C 3.894531 65.121094 3.996094 64.898438 4.195312 64.828125 L 94.527344 31.949219 C 94.730469 31.875 94.949219 31.976562 95.023438 32.179688 C 95.09375 32.378906 94.992188 32.597656 94.792969 32.671875 L 4.457031 65.550781 C 4.414062 65.566406 4.371094 65.574219 4.328125 65.574219 Z M 4.328125 65.574219 " fill-opacity="1" fill-rule="nonzero"/><path fill="#dbbe67" d="M 7.867188 73.167969 C 7.734375 73.167969 7.605469 73.097656 7.535156 72.972656 C 7.429688 72.789062 7.492188 72.554688 7.675781 72.449219 L 90.925781 24.382812 C 91.113281 24.277344 91.347656 24.339844 91.453125 24.523438 C 91.558594 24.707031 91.496094 24.941406 91.3125 25.050781 L 8.058594 73.113281 C 8 73.148438 7.933594 73.167969 7.867188 73.167969 Z M 7.867188 73.167969 " fill-opacity="1" fill-rule="nonzero"/><path fill="#dbbe67" d="M 7.867188 73.167969 C 7.734375 73.167969 7.605469 73.097656 7.535156 72.972656 C 7.429688 72.789062 7.492188 72.554688 7.675781 72.449219 L 90.925781 24.382812 C 91.113281 24.277344 91.347656 24.339844 91.453125 24.523438 C 91.558594 24.707031 91.496094 24.941406 91.3125 25.050781 L 8.058594 73.113281 C 8 73.148438 7.933594 73.167969 7.867188 73.167969 Z M 7.867188 73.167969 " fill-opacity="1" fill-rule="nonzero"/><path fill="#dbbe67" d="M 12.675781 80.027344 C 12.5625 80.027344 12.457031 79.984375 12.378906 79.890625 C 12.242188 79.730469 12.265625 79.488281 12.425781 79.351562 L 86.066406 17.558594 C 86.230469 17.421875 86.472656 17.441406 86.609375 17.605469 C 86.746094 17.769531 86.722656 18.011719 86.5625 18.148438 L 12.921875 79.9375 C 12.847656 80 12.761719 80.027344 12.675781 80.027344 Z M 12.675781 80.027344 " fill-opacity="1" fill-rule="nonzero"/><path fill="#dbbe67" d="M 12.675781 80.027344 C 12.5625 80.027344 12.457031 79.984375 12.378906 79.890625 C 12.242188 79.730469 12.265625 79.488281 12.425781 79.351562 L 86.066406 17.558594 C 86.230469 17.421875 86.472656 17.441406 86.609375 17.605469 C 86.746094 17.769531 86.722656 18.011719 86.5625 18.148438 L 12.921875 79.9375 C 12.847656 80 12.761719 80.027344 12.675781 80.027344 Z M 12.675781 80.027344 " fill-opacity="1" fill-rule="nonzero"/><path fill="#dbbe67" d="M 18.597656 85.953125 C 18.511719 85.953125 18.421875 85.925781 18.351562 85.863281 C 18.1875 85.726562 18.167969 85.484375 18.304688 85.320312 L 80.09375 11.679688 C 80.230469 11.519531 80.472656 11.496094 80.636719 11.632812 C 80.800781 11.769531 80.820312 12.011719 80.683594 12.175781 L 18.894531 85.816406 C 18.816406 85.90625 18.707031 85.953125 18.597656 85.953125 Z M 18.597656 85.953125 " fill-opacity="1" fill-rule="nonzero"/><path fill="#dbbe67" d="M 18.597656 85.953125 C 18.511719 85.953125 18.421875 85.925781 18.351562 85.863281 C 18.1875 85.726562 18.167969 85.484375 18.304688 85.320312 L 80.09375 11.679688 C 80.230469 11.519531 80.472656 11.496094 80.636719 11.632812 C 80.800781 11.769531 80.820312 12.011719 80.683594 12.175781 L 18.894531 85.816406 C 18.816406 85.90625 18.707031 85.953125 18.597656 85.953125 Z M 18.597656 85.953125 " fill-opacity="1" fill-rule="nonzero"/><path fill="#dbbe67" d="M 25.460938 90.757812 C 25.394531 90.757812 25.328125 90.742188 25.269531 90.707031 C 25.085938 90.601562 25.023438 90.367188 25.128906 90.183594 L 73.195312 6.929688 C 73.300781 6.746094 73.535156 6.683594 73.71875 6.789062 C 73.902344 6.894531 73.964844 7.132812 73.859375 7.316406 L 25.792969 90.566406 C 25.722656 90.691406 25.59375 90.757812 25.460938 90.757812 Z M 25.460938 90.757812 " fill-opacity="1" fill-rule="nonzero"/><path fill="#dbbe67" d="M 25.460938 90.757812 C 25.394531 90.757812 25.328125 90.742188 25.269531 90.707031 C 25.085938 90.601562 25.023438 90.367188 25.128906 90.183594 L 73.195312 6.929688 C 73.300781 6.746094 73.535156 6.683594 73.71875 6.789062 C 73.902344 6.894531 73.964844 7.132812 73.859375 7.316406 L 25.792969 90.566406 C 25.722656 90.691406 25.59375 90.757812 25.460938 90.757812 Z M 25.460938 90.757812 " fill-opacity="1" fill-rule="nonzero"/><path fill="#dbbe67" d="M 33.054688 94.300781 C 33.011719 94.300781 32.964844 94.292969 32.921875 94.277344 C 32.722656 94.203125 32.621094 93.984375 32.691406 93.785156 L 65.570312 3.449219 C 65.644531 3.25 65.863281 3.148438 66.066406 3.222656 C 66.265625 3.292969 66.367188 3.515625 66.292969 3.714844 L 33.417969 94.046875 C 33.359375 94.203125 33.210938 94.300781 33.054688 94.300781 Z M 33.054688 94.300781 " fill-opacity="1" fill-rule="nonzero"/><path fill="#dbbe67" d="M 33.054688 94.300781 C 33.011719 94.300781 32.964844 94.292969 32.921875 94.277344 C 32.722656 94.203125 32.621094 93.984375 32.691406 93.785156 L 65.570312 3.449219 C 65.644531 3.25 65.863281 3.148438 66.066406 3.222656 C 66.265625 3.292969 66.367188 3.515625 66.292969 3.714844 L 33.417969 94.046875 C 33.359375 94.203125 33.210938 94.300781 33.054688 94.300781 Z M 33.054688 94.300781 " fill-opacity="1" fill-rule="nonzero"/><path fill="#dbbe67" d="M 41.148438 96.46875 C 41.125 96.46875 41.101562 96.464844 41.082031 96.460938 C 40.871094 96.425781 40.730469 96.226562 40.769531 96.015625 L 57.460938 1.347656 C 57.5 1.136719 57.699219 0.996094 57.90625 1.035156 C 58.117188 1.070312 58.257812 1.269531 58.21875 1.480469 L 41.527344 96.152344 C 41.492188 96.335938 41.332031 96.46875 41.148438 96.46875 Z M 41.148438 96.46875 " fill-opacity="1" fill-rule="nonzero"/></g></g></g><g fill="#ffffff" fill-opacity="1"><g transform="translate(164.018636, 196.881798)"><g><path d="M 4.09375 -0.75 C 5.382812 -0.75 6.488281 -1.207031 7.40625 -2.125 C 8.320312 -3.039062 8.804688 -4.144531 8.859375 -5.4375 L 8.859375 -46.859375 C 8.753906 -48.148438 8.378906 -49.09375 7.734375 -49.6875 C 6.546875 -50.78125 5.332031 -51.328125 4.09375 -51.328125 L 3.125 -51.328125 L 3.125 -52.078125 L 31.609375 -52.078125 C 34.046875 -52.078125 36.054688 -52.257812 37.640625 -52.625 C 39.222656 -53 40.191406 -53.257812 40.546875 -53.40625 L 40.546875 -40.390625 L 39.796875 -40.46875 L 39.796875 -41.28125 C 39.796875 -44.363281 38.65625 -46.546875 36.375 -47.828125 C 35.28125 -48.472656 33.992188 -48.820312 32.515625 -48.875 L 20.015625 -48.875 L 20.015625 -27.234375 L 29.828125 -27.234375 C 31.660156 -27.273438 33.171875 -27.90625 34.359375 -29.125 C 35.554688 -30.34375 36.15625 -31.84375 36.15625 -33.625 L 36.15625 -34.296875 L 36.890625 -34.296875 L 36.890625 -17.109375 L 36.15625 -17.109375 L 36.15625 -17.703125 C 36.15625 -19.535156 35.570312 -21.046875 34.40625 -22.234375 C 33.238281 -23.429688 31.765625 -24.054688 29.984375 -24.109375 L 20.015625 -24.109375 L 20.015625 -3.203125 L 29.75 -3.203125 C 33.375 -3.203125 36.410156 -4.242188 38.859375 -6.328125 C 41.316406 -8.410156 43.144531 -11.359375 44.34375 -15.171875 L 45.078125 -15.171875 L 41.65625 0 L 3.125 0 L 3.125 -0.75 Z M 4.09375 -0.75 "/></g></g></g><g fill="#ffffff" fill-opacity="1"><g transform="translate(94.627366, 290.225431)"><g><path d="M 1.25 -0.234375 C 1.644531 -0.234375 1.976562 -0.367188 2.25 -0.640625 C 2.53125 -0.921875 2.679688 -1.257812 2.703125 -1.65625 L 2.703125 -14.296875 C 2.671875 -14.691406 2.554688 -14.976562 2.359375 -15.15625 C 1.992188 -15.488281 1.625 -15.65625 1.25 -15.65625 L 0.953125 -15.65625 L 0.953125 -15.875 L 9.640625 -15.875 C 10.378906 -15.875 10.988281 -15.929688 11.46875 -16.046875 C 11.957031 -16.160156 12.253906 -16.242188 12.359375 -16.296875 L 12.359375 -12.3125 L 12.140625 -12.34375 L 12.140625 -12.59375 C 12.140625 -13.53125 11.789062 -14.195312 11.09375 -14.59375 C 10.757812 -14.789062 10.367188 -14.894531 9.921875 -14.90625 L 6.109375 -14.90625 L 6.109375 -8.296875 L 9.09375 -8.296875 C 9.65625 -8.316406 10.117188 -8.507812 10.484375 -8.875 C 10.847656 -9.25 11.03125 -9.707031 11.03125 -10.25 L 11.03125 -10.453125 L 11.25 -10.453125 L 11.25 -5.21875 L 11.03125 -5.21875 L 11.03125 -5.40625 C 11.03125 -5.957031 10.847656 -6.414062 10.484375 -6.78125 C 10.128906 -7.144531 9.679688 -7.332031 9.140625 -7.34375 L 6.109375 -7.34375 L 6.109375 -0.96875 L 9.078125 -0.96875 C 10.179688 -0.96875 11.109375 -1.285156 11.859375 -1.921875 C 12.609375 -2.554688 13.160156 -3.457031 13.515625 -4.625 L 13.75 -4.625 L 12.703125 0 L 0.953125 0 L 0.953125 -0.234375 Z M 1.25 -0.234375 "/></g></g></g><g fill="#ffffff" fill-opacity="1"><g transform="translate(111.249805, 290.225431)"><g><path d="M 1.25 -0.234375 C 1.644531 -0.234375 1.976562 -0.367188 2.25 -0.640625 C 2.53125 -0.921875 2.679688 -1.257812 2.703125 -1.65625 L 2.703125 -14.21875 C 2.679688 -14.613281 2.53125 -14.953125 2.25 -15.234375 C 1.976562 -15.515625 1.644531 -15.65625 1.25 -15.65625 L 0.953125 -15.65625 L 0.953125 -15.875 L 7.84375 -15.875 L 7.828125 -15.65625 L 7.5625 -15.65625 C 7.164062 -15.65625 6.820312 -15.515625 6.53125 -15.234375 C 6.25 -14.953125 6.109375 -14.613281 6.109375 -14.21875 L 6.109375 -0.96875 L 9.078125 -0.96875 C 10.179688 -0.96875 11.109375 -1.285156 11.859375 -1.921875 C 12.609375 -2.554688 13.160156 -3.457031 13.515625 -4.625 L 13.75 -4.625 L 12.703125 0 L 0.953125 0 L 0.953125 -0.234375 Z M 1.25 -0.234375 "/></g></g></g><g fill="#ffffff" fill-opacity="1"><g transform="translate(127.532115, 290.225431)"><g><path d="M 1.25 -0.234375 C 1.644531 -0.234375 1.976562 -0.367188 2.25 -0.640625 C 2.53125 -0.921875 2.679688 -1.257812 2.703125 -1.65625 L 2.703125 -14.25 C 2.679688 -14.644531 2.53125 -14.976562 2.25 -15.25 C 1.976562 -15.519531 1.644531 -15.65625 1.25 -15.65625 L 0.953125 -15.65625 L 0.953125 -15.875 L 7.84375 -15.875 L 7.828125 -15.65625 L 7.5625 -15.65625 C 7.164062 -15.65625 6.820312 -15.519531 6.53125 -15.25 C 6.25 -14.976562 6.109375 -14.644531 6.109375 -14.25 L 6.109375 -1.65625 C 6.109375 -1.257812 6.25 -0.921875 6.53125 -0.640625 C 6.820312 -0.367188 7.164062 -0.234375 7.5625 -0.234375 L 7.828125 -0.234375 L 7.84375 0 L 0.953125 0 L 0.953125 -0.234375 Z M 1.25 -0.234375 "/></g></g></g><g fill="#ffffff" fill-opacity="1"><g transform="translate(138.598997, 290.225431)"><g><path d="M 9.28125 -14.953125 L 9.28125 -1.640625 C 9.289062 -1.242188 9.4375 -0.910156 9.71875 -0.640625 C 10 -0.367188 10.335938 -0.234375 10.734375 -0.234375 L 11 -0.234375 L 11.03125 0 L 4.125 0 L 4.125 -0.234375 L 4.421875 -0.234375 C 4.796875 -0.234375 5.125 -0.367188 5.40625 -0.640625 C 5.6875 -0.910156 5.84375 -1.234375 5.875 -1.609375 L 5.875 -14.953125 L 2.8125 -14.953125 C 2.113281 -14.929688 1.5625 -14.707031 1.15625 -14.28125 C 0.75 -13.863281 0.546875 -13.316406 0.546875 -12.640625 L 0.546875 -12.359375 L 0.3125 -12.359375 L 0.3125 -16.3125 C 0.9375 -16.050781 1.832031 -15.914062 3 -15.90625 L 12.140625 -15.90625 C 12.609375 -15.90625 13.117188 -15.945312 13.671875 -16.03125 C 14.222656 -16.125 14.601562 -16.21875 14.8125 -16.3125 L 14.8125 -12.359375 L 14.59375 -12.359375 L 14.59375 -12.640625 C 14.59375 -13.578125 14.234375 -14.242188 13.515625 -14.640625 C 13.179688 -14.828125 12.78125 -14.929688 12.3125 -14.953125 Z M 9.28125 -14.953125 "/></g></g></g><g fill="#ffffff" fill-opacity="1"><g transform="translate(156.015084, 290.225431)"><g><path d="M 1.25 -0.234375 C 1.644531 -0.234375 1.976562 -0.367188 2.25 -0.640625 C 2.53125 -0.921875 2.679688 -1.257812 2.703125 -1.65625 L 2.703125 -14.296875 C 2.671875 -14.691406 2.554688 -14.976562 2.359375 -15.15625 C 1.992188 -15.488281 1.625 -15.65625 1.25 -15.65625 L 0.953125 -15.65625 L 0.953125 -15.875 L 9.640625 -15.875 C 10.378906 -15.875 10.988281 -15.929688 11.46875 -16.046875 C 11.957031 -16.160156 12.253906 -16.242188 12.359375 -16.296875 L 12.359375 -12.3125 L 12.140625 -12.34375 L 12.140625 -12.59375 C 12.140625 -13.53125 11.789062 -14.195312 11.09375 -14.59375 C 10.757812 -14.789062 10.367188 -14.894531 9.921875 -14.90625 L 6.109375 -14.90625 L 6.109375 -8.296875 L 9.09375 -8.296875 C 9.65625 -8.316406 10.117188 -8.507812 10.484375 -8.875 C 10.847656 -9.25 11.03125 -9.707031 11.03125 -10.25 L 11.03125 -10.453125 L 11.25 -10.453125 L 11.25 -5.21875 L 11.03125 -5.21875 L 11.03125 -5.40625 C 11.03125 -5.957031 10.847656 -6.414062 10.484375 -6.78125 C 10.128906 -7.144531 9.679688 -7.332031 9.140625 -7.34375 L 6.109375 -7.34375 L 6.109375 -0.96875 L 9.078125 -0.96875 C 10.179688 -0.96875 11.109375 -1.285156 11.859375 -1.921875 C 12.609375 -2.554688 13.160156 -3.457031 13.515625 -4.625 L 13.75 -4.625 L 12.703125 0 L 0.953125 0 L 0.953125 -0.234375 Z M 1.25 -0.234375 "/></g></g></g><g fill="#ffffff" fill-opacity="1"><g transform="translate(172.637523, 290.225431)"><g/></g></g><g fill="#ffffff" fill-opacity="1"><g transform="translate(180.620498, 290.225431)"><g><path d="M 1.25 -0.234375 C 1.644531 -0.234375 1.976562 -0.367188 2.25 -0.640625 C 2.53125 -0.921875 2.679688 -1.257812 2.703125 -1.65625 L 2.703125 -14.296875 C 2.671875 -14.691406 2.554688 -14.976562 2.359375 -15.15625 C 1.992188 -15.488281 1.625 -15.65625 1.25 -15.65625 L 0.953125 -15.65625 L 0.953125 -15.875 L 9.640625 -15.875 C 10.378906 -15.875 10.988281 -15.929688 11.46875 -16.046875 C 11.957031 -16.160156 12.253906 -16.242188 12.359375 -16.296875 L 12.359375 -12.3125 L 12.140625 -12.34375 L 12.140625 -12.59375 C 12.140625 -13.53125 11.789062 -14.195312 11.09375 -14.59375 C 10.757812 -14.789062 10.367188 -14.894531 9.921875 -14.90625 L 6.109375 -14.90625 L 6.109375 -8.296875 L 9.09375 -8.296875 C 9.65625 -8.316406 10.117188 -8.507812 10.484375 -8.875 C 10.847656 -9.25 11.03125 -9.707031 11.03125 -10.25 L 11.03125 -10.453125 L 11.25 -10.453125 L 11.25 -5.21875 L 11.03125 -5.21875 L 11.03125 -5.40625 C 11.03125 -5.957031 10.847656 -6.414062 10.484375 -6.78125 C 10.128906 -7.144531 9.679688 -7.332031 9.140625 -7.34375 L 6.109375 -7.34375 L 6.109375 -0.96875 L 9.078125 -0.96875 C 10.179688 -0.96875 11.109375 -1.285156 11.859375 -1.921875 C 12.609375 -2.554688 13.160156 -3.457031 13.515625 -4.625 L 13.75 -4.625 L 12.703125 0 L 0.953125 0 L 0.953125 -0.234375 Z M 1.25 -0.234375 "/></g></g></g><g fill="#ffffff" fill-opacity="1"><g transform="translate(197.242937, 290.225431)"><g><path d="M 1.140625 -2.109375 C 1.140625 -3.203125 1.375 -4.132812 1.84375 -4.90625 L 2.046875 -4.90625 C 2.023438 -4.78125 2.015625 -4.65625 2.015625 -4.53125 C 2.015625 -3.488281 2.390625 -2.578125 3.140625 -1.796875 C 3.890625 -1.023438 4.914062 -0.640625 6.21875 -0.640625 C 7.226562 -0.640625 8.015625 -0.878906 8.578125 -1.359375 C 9.148438 -1.847656 9.4375 -2.460938 9.4375 -3.203125 C 9.4375 -3.640625 9.296875 -4.03125 9.015625 -4.375 C 8.734375 -4.726562 8.269531 -5.113281 7.625 -5.53125 L 3.671875 -8.140625 C 2.203125 -9.128906 1.46875 -10.34375 1.46875 -11.78125 C 1.46875 -11.925781 1.484375 -12.078125 1.515625 -12.234375 C 1.609375 -13.421875 2.070312 -14.378906 2.90625 -15.109375 C 3.75 -15.835938 4.875 -16.203125 6.28125 -16.203125 C 7.113281 -16.203125 8.144531 -16.125 9.375 -15.96875 L 10.796875 -15.96875 L 10.5 -12.640625 L 10.28125 -12.640625 C 10.28125 -13.421875 9.988281 -14.050781 9.40625 -14.53125 C 8.820312 -15.007812 8.046875 -15.25 7.078125 -15.25 C 5.898438 -15.25 5.046875 -14.882812 4.515625 -14.15625 C 4.242188 -13.8125 4.109375 -13.460938 4.109375 -13.109375 C 4.109375 -12.765625 4.175781 -12.472656 4.3125 -12.234375 C 4.519531 -11.835938 4.976562 -11.410156 5.6875 -10.953125 L 10.03125 -8.140625 C 11.382812 -7.253906 12.0625 -6.09375 12.0625 -4.65625 C 12.0625 -3.050781 11.515625 -1.820312 10.421875 -0.96875 C 9.328125 -0.113281 7.875 0.3125 6.0625 0.3125 C 5.03125 0.3125 4.078125 0.1875 3.203125 -0.0625 C 2.335938 -0.3125 1.703125 -0.644531 1.296875 -1.0625 C 1.191406 -1.351562 1.140625 -1.703125 1.140625 -2.109375 Z M 1.140625 -2.109375 "/></g></g></g><g fill="#ffffff" fill-opacity="1"><g transform="translate(212.663564, 290.225431)"><g><path d="M 9.28125 -14.953125 L 9.28125 -1.640625 C 9.289062 -1.242188 9.4375 -0.910156 9.71875 -0.640625 C 10 -0.367188 10.335938 -0.234375 10.734375 -0.234375 L 11 -0.234375 L 11.03125 0 L 4.125 0 L 4.125 -0.234375 L 4.421875 -0.234375 C 4.796875 -0.234375 5.125 -0.367188 5.40625 -0.640625 C 5.6875 -0.910156 5.84375 -1.234375 5.875 -1.609375 L 5.875 -14.953125 L 2.8125 -14.953125 C 2.113281 -14.929688 1.5625 -14.707031 1.15625 -14.28125 C 0.75 -13.863281 0.546875 -13.316406 0.546875 -12.640625 L 0.546875 -12.359375 L 0.3125 -12.359375 L 0.3125 -16.3125 C 0.9375 -16.050781 1.832031 -15.914062 3 -15.90625 L 12.140625 -15.90625 C 12.609375 -15.90625 13.117188 -15.945312 13.671875 -16.03125 C 14.222656 -16.125 14.601562 -16.21875 14.8125 -16.3125 L 14.8125 -12.359375 L 14.59375 -12.359375 L 14.59375 -12.640625 C 14.59375 -13.578125 14.234375 -14.242188 13.515625 -14.640625 C 13.179688 -14.828125 12.78125 -14.929688 12.3125 -14.953125 Z M 9.28125 -14.953125 "/></g></g></g><g fill="#ffffff" fill-opacity="1"><g transform="translate(230.079651, 290.225431)"><g><path d="M 16.734375 -0.234375 L 16.9375 -0.234375 L 16.9375 0 L 9.703125 0 L 9.703125 -0.234375 L 9.90625 -0.234375 C 10.238281 -0.234375 10.484375 -0.332031 10.640625 -0.53125 C 10.804688 -0.738281 10.890625 -0.929688 10.890625 -1.109375 C 10.890625 -1.296875 10.847656 -1.476562 10.765625 -1.65625 L 9.65625 -4.453125 L 4.34375 -4.453125 L 3.171875 -1.65625 C 3.097656 -1.457031 3.0625 -1.269531 3.0625 -1.09375 C 3.0625 -0.925781 3.144531 -0.738281 3.3125 -0.53125 C 3.476562 -0.332031 3.722656 -0.234375 4.046875 -0.234375 L 4.234375 -0.234375 L 4.234375 0 L -0.625 0 L -0.625 -0.234375 L -0.421875 -0.234375 C -0.0664062 -0.234375 0.28125 -0.335938 0.625 -0.546875 C 0.976562 -0.753906 1.265625 -1.070312 1.484375 -1.5 L 6.734375 -13.359375 C 7.441406 -14.859375 7.816406 -15.847656 7.859375 -16.328125 L 8.0625 -16.328125 L 14.8125 -1.546875 C 15.03125 -1.109375 15.3125 -0.78125 15.65625 -0.5625 C 16.007812 -0.34375 16.367188 -0.234375 16.734375 -0.234375 Z M 4.734375 -5.40625 L 9.265625 -5.40625 L 7.078125 -10.984375 Z M 4.734375 -5.40625 "/></g></g></g><g fill="#ffffff" fill-opacity="1"><g transform="translate(248.629527, 290.225431)"><g><path d="M 9.28125 -14.953125 L 9.28125 -1.640625 C 9.289062 -1.242188 9.4375 -0.910156 9.71875 -0.640625 C 10 -0.367188 10.335938 -0.234375 10.734375 -0.234375 L 11 -0.234375 L 11.03125 0 L 4.125 0 L 4.125 -0.234375 L 4.421875 -0.234375 C 4.796875 -0.234375 5.125 -0.367188 5.40625 -0.640625 C 5.6875 -0.910156 5.84375 -1.234375 5.875 -1.609375 L 5.875 -14.953125 L 2.8125 -14.953125 C 2.113281 -14.929688 1.5625 -14.707031 1.15625 -14.28125 C 0.75 -13.863281 0.546875 -13.316406 0.546875 -12.640625 L 0.546875 -12.359375 L 0.3125 -12.359375 L 0.3125 -16.3125 C 0.9375 -16.050781 1.832031 -15.914062 3 -15.90625 L 12.140625 -15.90625 C 12.609375 -15.90625 13.117188 -15.945312 13.671875 -16.03125 C 14.222656 -16.125 14.601562 -16.21875 14.8125 -16.3125 L 14.8125 -12.359375 L 14.59375 -12.359375 L 14.59375 -12.640625 C 14.59375 -13.578125 14.234375 -14.242188 13.515625 -14.640625 C 13.179688 -14.828125 12.78125 -14.929688 12.3125 -14.953125 Z M 9.28125 -14.953125 "/></g></g></g><g fill="#ffffff" fill-opacity="1"><g transform="translate(266.045615, 290.225431)"><g><path d="M 1.25 -0.234375 C 1.644531 -0.234375 1.976562 -0.367188 2.25 -0.640625 C 2.53125 -0.921875 2.679688 -1.257812 2.703125 -1.65625 L 2.703125 -14.296875 C 2.671875 -14.691406 2.554688 -14.976562 2.359375 -15.15625 C 1.992188 -15.488281 1.625 -15.65625 1.25 -15.65625 L 0.953125 -15.65625 L 0.953125 -15.875 L 9.640625 -15.875 C 10.378906 -15.875 10.988281 -15.929688 11.46875 -16.046875 C 11.957031 -16.160156 12.253906 -16.242188 12.359375 -16.296875 L 12.359375 -12.3125 L 12.140625 -12.34375 L 12.140625 -12.59375 C 12.140625 -13.53125 11.789062 -14.195312 11.09375 -14.59375 C 10.757812 -14.789062 10.367188 -14.894531 9.921875 -14.90625 L 6.109375 -14.90625 L 6.109375 -8.296875 L 9.09375 -8.296875 C 9.65625 -8.316406 10.117188 -8.507812 10.484375 -8.875 C 10.847656 -9.25 11.03125 -9.707031 11.03125 -10.25 L 11.03125 -10.453125 L 11.25 -10.453125 L 11.25 -5.21875 L 11.03125 -5.21875 L 11.03125 -5.40625 C 11.03125 -5.957031 10.847656 -6.414062 10.484375 -6.78125 C 10.128906 -7.144531 9.679688 -7.332031 9.140625 -7.34375 L 6.109375 -7.34375 L 6.109375 -0.96875 L 9.078125 -0.96875 C 10.179688 -0.96875 11.109375 -1.285156 11.859375 -1.921875 C 12.609375 -2.554688 13.160156 -3.457031 13.515625 -4.625 L 13.75 -4.625 L 12.703125 0 L 0.953125 0 L 0.953125 -0.234375 Z M 1.25 -0.234375 "/></g></g></g><g fill="#dbbe67" fill-opacity="1"><g transform="translate(132.730806, 309.981512)"><g><path d="M 3.765625 0.09375 C 3.117188 0.09375 2.5 -0.00390625 1.90625 -0.203125 C 1.3125 -0.398438 0.84375 -0.65625 0.5 -0.96875 L 0.953125 -1.921875 C 1.273438 -1.628906 1.691406 -1.390625 2.203125 -1.203125 C 2.710938 -1.023438 3.234375 -0.9375 3.765625 -0.9375 C 4.472656 -0.9375 5 -1.054688 5.34375 -1.296875 C 5.695312 -1.535156 5.875 -1.851562 5.875 -2.25 C 5.875 -2.539062 5.773438 -2.773438 5.578125 -2.953125 C 5.390625 -3.140625 5.15625 -3.28125 4.875 -3.375 C 4.59375 -3.476562 4.195312 -3.59375 3.6875 -3.71875 C 3.050781 -3.875 2.535156 -4.023438 2.140625 -4.171875 C 1.742188 -4.328125 1.40625 -4.566406 1.125 -4.890625 C 0.84375 -5.210938 0.703125 -5.644531 0.703125 -6.1875 C 0.703125 -6.644531 0.820312 -7.054688 1.0625 -7.421875 C 1.300781 -7.785156 1.664062 -8.078125 2.15625 -8.296875 C 2.644531 -8.515625 3.25 -8.625 3.96875 -8.625 C 4.476562 -8.625 4.972656 -8.554688 5.453125 -8.421875 C 5.941406 -8.296875 6.363281 -8.113281 6.71875 -7.875 L 6.3125 -6.890625 C 5.957031 -7.117188 5.578125 -7.289062 5.171875 -7.40625 C 4.765625 -7.53125 4.363281 -7.59375 3.96875 -7.59375 C 3.28125 -7.59375 2.765625 -7.46875 2.421875 -7.21875 C 2.078125 -6.96875 1.90625 -6.640625 1.90625 -6.234375 C 1.90625 -5.941406 2 -5.703125 2.1875 -5.515625 C 2.382812 -5.335938 2.625 -5.195312 2.90625 -5.09375 C 3.195312 -5 3.59375 -4.894531 4.09375 -4.78125 C 4.738281 -4.625 5.253906 -4.46875 5.640625 -4.3125 C 6.035156 -4.15625 6.367188 -3.914062 6.640625 -3.59375 C 6.921875 -3.28125 7.0625 -2.859375 7.0625 -2.328125 C 7.0625 -1.878906 6.941406 -1.46875 6.703125 -1.09375 C 6.460938 -0.726562 6.09375 -0.4375 5.59375 -0.21875 C 5.09375 -0.0078125 4.484375 0.09375 3.765625 0.09375 Z M 3.765625 0.09375 "/></g></g></g><g fill="#dbbe67" fill-opacity="1"><g transform="translate(144.823207, 309.981512)"><g><path d="M 5.125 0.09375 C 4.269531 0.09375 3.492188 -0.09375 2.796875 -0.46875 C 2.109375 -0.84375 1.566406 -1.363281 1.171875 -2.03125 C 0.773438 -2.695312 0.578125 -3.441406 0.578125 -4.265625 C 0.578125 -5.085938 0.773438 -5.832031 1.171875 -6.5 C 1.566406 -7.164062 2.109375 -7.6875 2.796875 -8.0625 C 3.492188 -8.4375 4.269531 -8.625 5.125 -8.625 C 5.976562 -8.625 6.75 -8.4375 7.4375 -8.0625 C 8.132812 -7.6875 8.675781 -7.164062 9.0625 -6.5 C 9.457031 -5.84375 9.65625 -5.097656 9.65625 -4.265625 C 9.65625 -3.429688 9.457031 -2.679688 9.0625 -2.015625 C 8.675781 -1.359375 8.132812 -0.84375 7.4375 -0.46875 C 6.75 -0.09375 5.976562 0.09375 5.125 0.09375 Z M 5.125 -0.984375 C 5.75 -0.984375 6.3125 -1.125 6.8125 -1.40625 C 7.3125 -1.695312 7.707031 -2.09375 8 -2.59375 C 8.289062 -3.09375 8.4375 -3.648438 8.4375 -4.265625 C 8.4375 -4.878906 8.289062 -5.4375 8 -5.9375 C 7.707031 -6.4375 7.3125 -6.828125 6.8125 -7.109375 C 6.3125 -7.398438 5.75 -7.546875 5.125 -7.546875 C 4.5 -7.546875 3.929688 -7.398438 3.421875 -7.109375 C 2.921875 -6.828125 2.523438 -6.4375 2.234375 -5.9375 C 1.941406 -5.4375 1.796875 -4.878906 1.796875 -4.265625 C 1.796875 -3.648438 1.941406 -3.09375 2.234375 -2.59375 C 2.523438 -2.09375 2.921875 -1.695312 3.421875 -1.40625 C 3.929688 -1.125 4.5 -0.984375 5.125 -0.984375 Z M 5.125 -0.984375 "/></g></g></g><g fill="#dbbe67" fill-opacity="1"><g transform="translate(159.584655, 309.981512)"><g><path d="M 1.28125 -8.53125 L 2.5 -8.53125 L 2.5 -1.0625 L 7.125 -1.0625 L 7.125 0 L 1.28125 0 Z M 1.28125 -8.53125 "/></g></g></g><g fill="#dbbe67" fill-opacity="1"><g transform="translate(171.347993, 309.981512)"><g><path d="M 4.8125 0.09375 C 3.675781 0.09375 2.789062 -0.226562 2.15625 -0.875 C 1.519531 -1.53125 1.203125 -2.46875 1.203125 -3.6875 L 1.203125 -8.53125 L 2.421875 -8.53125 L 2.421875 -3.734375 C 2.421875 -1.898438 3.222656 -0.984375 4.828125 -0.984375 C 5.609375 -0.984375 6.203125 -1.207031 6.609375 -1.65625 C 7.023438 -2.113281 7.234375 -2.804688 7.234375 -3.734375 L 7.234375 -8.53125 L 8.421875 -8.53125 L 8.421875 -3.6875 C 8.421875 -2.457031 8.101562 -1.519531 7.46875 -0.875 C 6.832031 -0.226562 5.945312 0.09375 4.8125 0.09375 Z M 4.8125 0.09375 "/></g></g></g><g fill="#dbbe67" fill-opacity="1"><g transform="translate(185.512253, 309.981512)"><g><path d="M 2.96875 -7.46875 L 0.046875 -7.46875 L 0.046875 -8.53125 L 7.109375 -8.53125 L 7.109375 -7.46875 L 4.1875 -7.46875 L 4.1875 0 L 2.96875 0 Z M 2.96875 -7.46875 "/></g></g></g><g fill="#dbbe67" fill-opacity="1"><g transform="translate(197.190273, 309.981512)"><g><path d="M 1.28125 -8.53125 L 2.5 -8.53125 L 2.5 0 L 1.28125 0 Z M 1.28125 -8.53125 "/></g></g></g><g fill="#dbbe67" fill-opacity="1"><g transform="translate(205.492377, 309.981512)"><g><path d="M 5.125 0.09375 C 4.269531 0.09375 3.492188 -0.09375 2.796875 -0.46875 C 2.109375 -0.84375 1.566406 -1.363281 1.171875 -2.03125 C 0.773438 -2.695312 0.578125 -3.441406 0.578125 -4.265625 C 0.578125 -5.085938 0.773438 -5.832031 1.171875 -6.5 C 1.566406 -7.164062 2.109375 -7.6875 2.796875 -8.0625 C 3.492188 -8.4375 4.269531 -8.625 5.125 -8.625 C 5.976562 -8.625 6.75 -8.4375 7.4375 -8.0625 C 8.132812 -7.6875 8.675781 -7.164062 9.0625 -6.5 C 9.457031 -5.84375 9.65625 -5.097656 9.65625 -4.265625 C 9.65625 -3.429688 9.457031 -2.679688 9.0625 -2.015625 C 8.675781 -1.359375 8.132812 -0.84375 7.4375 -0.46875 C 6.75 -0.09375 5.976562 0.09375 5.125 0.09375 Z M 5.125 -0.984375 C 5.75 -0.984375 6.3125 -1.125 6.8125 -1.40625 C 7.3125 -1.695312 7.707031 -2.09375 8 -2.59375 C 8.289062 -3.09375 8.4375 -3.648438 8.4375 -4.265625 C 8.4375 -4.878906 8.289062 -5.4375 8 -5.9375 C 7.707031 -6.4375 7.3125 -6.828125 6.8125 -7.109375 C 6.3125 -7.398438 5.75 -7.546875 5.125 -7.546875 C 4.5 -7.546875 3.929688 -7.398438 3.421875 -7.109375 C 2.921875 -6.828125 2.523438 -6.4375 2.234375 -5.9375 C 1.941406 -5.4375 1.796875 -4.878906 1.796875 -4.265625 C 1.796875 -3.648438 1.941406 -3.09375 2.234375 -2.59375 C 2.523438 -2.09375 2.921875 -1.695312 3.421875 -1.40625 C 3.929688 -1.125 4.5 -0.984375 5.125 -0.984375 Z M 5.125 -0.984375 "/></g></g></g><g fill="#dbbe67" fill-opacity="1"><g transform="translate(220.253824, 309.981512)"><g><path d="M 8.609375 -8.53125 L 8.609375 0 L 7.609375 0 L 2.5 -6.359375 L 2.5 0 L 1.28125 0 L 1.28125 -8.53125 L 2.28125 -8.53125 L 7.390625 -2.171875 L 7.390625 -8.53125 Z M 8.609375 -8.53125 "/></g></g></g><g fill="#dbbe67" fill-opacity="1"><g transform="translate(234.674025, 309.981512)"><g><path d="M 3.765625 0.09375 C 3.117188 0.09375 2.5 -0.00390625 1.90625 -0.203125 C 1.3125 -0.398438 0.84375 -0.65625 0.5 -0.96875 L 0.953125 -1.921875 C 1.273438 -1.628906 1.691406 -1.390625 2.203125 -1.203125 C 2.710938 -1.023438 3.234375 -0.9375 3.765625 -0.9375 C 4.472656 -0.9375 5 -1.054688 5.34375 -1.296875 C 5.695312 -1.535156 5.875 -1.851562 5.875 -2.25 C 5.875 -2.539062 5.773438 -2.773438 5.578125 -2.953125 C 5.390625 -3.140625 5.15625 -3.28125 4.875 -3.375 C 4.59375 -3.476562 4.195312 -3.59375 3.6875 -3.71875 C 3.050781 -3.875 2.535156 -4.023438 2.140625 -4.171875 C 1.742188 -4.328125 1.40625 -4.566406 1.125 -4.890625 C 0.84375 -5.210938 0.703125 -5.644531 0.703125 -6.1875 C 0.703125 -6.644531 0.820312 -7.054688 1.0625 -7.421875 C 1.300781 -7.785156 1.664062 -8.078125 2.15625 -8.296875 C 2.644531 -8.515625 3.25 -8.625 3.96875 -8.625 C 4.476562 -8.625 4.972656 -8.554688 5.453125 -8.421875 C 5.941406 -8.296875 6.363281 -8.113281 6.71875 -7.875 L 6.3125 -6.890625 C 5.957031 -7.117188 5.578125 -7.289062 5.171875 -7.40625 C 4.765625 -7.53125 4.363281 -7.59375 3.96875 -7.59375 C 3.28125 -7.59375 2.765625 -7.46875 2.421875 -7.21875 C 2.078125 -6.96875 1.90625 -6.640625 1.90625 -6.234375 C 1.90625 -5.941406 2 -5.703125 2.1875 -5.515625 C 2.382812 -5.335938 2.625 -5.195312 2.90625 -5.09375 C 3.195312 -5 3.59375 -4.894531 4.09375 -4.78125 C 4.738281 -4.625 5.253906 -4.46875 5.640625 -4.3125 C 6.035156 -4.15625 6.367188 -3.914062 6.640625 -3.59375 C 6.921875 -3.28125 7.0625 -2.859375 7.0625 -2.328125 C 7.0625 -1.878906 6.941406 -1.46875 6.703125 -1.09375 C 6.460938 -0.726562 6.09375 -0.4375 5.59375 -0.21875 C 5.09375 -0.0078125 4.484375 0.09375 3.765625 0.09375 Z M 3.765625 0.09375 "/></g></g></g></svg>